<svg version="1.1" id="Layer_1" xmlns="http://www.w3.org/2000/svg" xmlns:xlink="http://www.w3.org/1999/xlink" x="0px" y="0px"
	 width="100%" viewBox="0 0 501 498" enable-background="new 0 0 501 498" xml:space="preserve">
<path fill="#000000" opacity="1.000000" stroke="none" 
	d="
M335.000000,499.000000 
	C223.333359,499.000000 112.166718,499.000000 1.000060,499.000000 
	C1.000040,333.000061 1.000040,167.000137 1.000020,1.000149 
	C167.999893,1.000099 334.999786,1.000099 501.999756,1.000050 
	C501.999847,166.999863 501.999847,332.999725 501.999939,498.999786 
	C446.500000,499.000000 391.000000,499.000000 335.000000,499.000000 
M277.938660,168.442673 
	C277.634705,168.267929 277.330780,168.093185 277.011200,167.986069 
	C277.011200,167.986069 277.079773,167.975250 276.927734,167.440552 
	C276.624756,167.240555 276.321747,167.040558 275.727692,166.235245 
	C258.646362,151.162201 232.382507,148.643219 213.590439,166.086395 
	C198.585739,180.014053 195.131439,197.456070 202.313980,216.125839 
	C208.092957,231.147263 219.498535,240.933868 236.542877,244.036240 
	C236.974457,244.026260 237.406052,244.016296 238.285599,244.778305 
	C255.834488,244.778305 273.383362,244.778305 291.008453,244.778305 
	C291.008453,228.173370 291.025726,212.033752 290.966370,195.894409 
	C290.962738,194.907761 290.352661,193.923325 290.046173,192.949326 
	C290.046173,192.949326 290.040100,192.919434 290.045441,192.118622 
	C289.050629,189.051117 288.055817,185.983597 287.032166,182.986481 
	C287.032166,182.986481 287.107361,182.974945 287.059937,182.330505 
	C286.725739,181.864471 286.391541,181.398422 286.016083,181.006149 
	C286.016083,181.006149 286.078339,180.948502 286.028839,180.259781 
	C285.371124,179.149139 284.713409,178.038513 284.015778,176.990280 
	C284.015778,176.990280 284.088806,176.977859 284.034210,176.342957 
	C283.710510,175.872055 283.386810,175.401169 283.001648,174.984726 
	C283.001648,174.984726 283.080475,174.961884 282.971832,174.417679 
	C282.659546,174.250259 282.347260,174.082840 282.018372,173.984802 
	C282.018372,173.984802 282.089050,173.975128 282.023804,173.329453 
	C281.686523,172.849625 281.349274,172.369797 280.876923,171.453796 
	C280.700623,171.175873 280.448669,171.021133 279.967682,170.452896 
	C279.656250,170.276627 279.344788,170.100342 279.008240,169.989502 
	C279.008240,169.989502 279.074219,169.965820 278.941223,169.439148 
	C278.637390,169.266907 278.333527,169.094666 278.011261,168.989304 
	C278.011261,168.989304 278.077606,168.969055 277.938660,168.442673 
M303.721558,269.765259 
	C303.896149,265.855225 304.070740,261.945190 304.221375,258.571136 
	C308.518951,257.956207 312.293304,257.416168 316.783173,256.451630 
	C316.837952,253.316132 317.098358,250.162704 316.827545,247.055573 
	C316.741577,246.068741 315.249725,244.429550 314.385834,244.419556 
	C310.656433,244.376434 306.921295,244.826965 302.830566,244.372711 
	C302.407135,248.096619 301.983704,251.820526 301.510956,255.978165 
	C298.544983,255.978165 295.448334,255.879684 292.366547,256.049774 
	C291.628082,256.090485 290.938965,257.024750 290.050720,257.976898 
	C290.018677,258.291138 290.059784,258.595520 290.010010,259.821808 
	C290.009613,262.754852 289.786133,265.715942 290.149200,268.603302 
	C290.253754,269.434784 292.048218,270.053802 293.916992,270.913727 
	C295.925903,270.871948 297.934784,270.830200 300.615295,270.949219 
	C301.380585,270.681488 302.145844,270.413727 303.721558,269.765259 
M240.489624,335.113068 
	C240.333542,335.406097 240.177460,335.699097 239.990448,336.617126 
	C239.922760,337.027985 239.855057,337.438843 239.241272,338.080719 
	C238.169601,336.818390 236.705597,335.718323 236.103165,334.261902 
	C234.573654,330.564178 233.430115,326.706757 231.990295,322.303986 
	C231.674210,321.537567 231.358139,320.771118 231.090210,319.173859 
	C229.775269,318.113281 228.589539,316.420563 227.119217,316.120026 
	C223.769150,315.435303 220.266052,315.096283 216.849731,315.232727 
	C211.694717,315.438690 206.579834,316.214233 203.096130,321.853973 
	C203.191345,313.630768 197.725922,316.413574 193.149384,316.510712 
	C193.101883,328.331512 193.039673,340.152344 193.046280,351.973114 
	C193.046646,352.627655 193.617279,353.281891 194.788589,353.936249 
	C196.287827,353.938171 197.787079,353.936218 199.286301,353.942780 
	C203.247543,353.960083 205.747787,352.982880 205.213303,348.018555 
	C204.681229,343.076874 204.428711,337.919800 205.304993,333.083893 
	C205.801147,330.345764 209.255768,325.730133 210.613602,325.987793 
	C215.933823,326.997375 218.132935,324.956116 219.929382,320.116364 
	C224.325699,331.741058 228.722000,343.365753 233.037811,355.444397 
	C233.037811,355.444397 232.980164,355.901825 232.511887,356.110992 
	C232.355316,356.401672 232.198746,356.692352 231.983841,357.462921 
	C231.983841,357.462921 231.905838,357.940002 231.287445,358.261139 
	C228.041779,359.940521 224.796112,361.619873 221.339783,363.408264 
	C221.339783,365.508270 221.339783,368.057922 221.339783,370.555847 
	C231.300018,371.778839 238.398865,368.119476 240.082123,361.065063 
	C240.082123,361.065063 240.125275,361.078613 240.784943,361.140930 
	C241.239029,359.741974 241.693115,358.343018 242.076782,356.561890 
	C242.076782,356.561890 242.062347,356.173553 242.817993,356.049591 
	C243.706619,354.046997 244.745804,352.096100 245.454971,350.031860 
	C247.400894,344.367676 249.208176,338.655823 251.037292,332.553467 
	C251.037292,332.553467 251.073624,332.144379 251.765213,332.060638 
	C253.830994,326.985779 255.896774,321.910919 258.306366,315.991394 
	C254.891983,315.991394 252.293640,316.050415 249.699188,315.975433 
	C246.889526,315.894257 245.798523,317.318573 245.972290,320.003906 
	C245.972290,320.003906 245.976608,319.940125 245.486908,320.105927 
	C245.335052,320.399933 245.183212,320.693909 245.019196,321.637848 
	C244.974335,322.068604 244.929459,322.499359 244.326859,323.395294 
	C243.193863,327.250031 242.060867,331.104767 240.973175,335.004181 
	C240.973175,335.004181 240.976944,334.940643 240.489624,335.113068 
M362.874969,353.964752 
	C365.929474,353.956085 368.984009,353.947418 372.871338,353.654327 
	C372.871338,340.801453 372.871338,327.948578 372.871338,314.539429 
	C368.617828,315.052582 364.876007,315.503998 361.053131,316.895020 
	C361.044678,327.934357 361.005493,338.973877 361.069122,350.012787 
	C361.076569,351.306274 361.650787,352.596466 362.874969,353.964752 
M89.862167,354.036041 
	C93.119049,354.036041 96.375931,354.036041 99.931786,354.036041 
	C99.931786,341.428741 99.938957,329.260712 99.895279,317.092834 
	C99.894043,316.747528 99.351280,316.404144 98.144577,316.003265 
	C95.085587,316.010254 92.026604,316.017242 88.156502,316.363190 
	C88.103691,328.240021 88.036263,340.116882 88.038284,351.993713 
	C88.038391,352.634003 88.621284,353.274200 89.862167,354.036041 
M316.199158,283.680573 
	C320.752625,283.680573 325.306091,283.680573 330.013184,283.680573 
	C330.013184,280.271271 330.149414,277.126068 329.947632,274.002686 
	C329.864380,272.714081 329.055237,271.472412 327.714813,270.027802 
	C323.645111,270.027802 319.575378,270.027802 314.727203,270.027802 
	C315.115601,274.636261 315.461670,278.742676 316.199158,283.680573 
M313.194824,316.006775 
	C310.463043,316.008057 307.731293,316.009369 304.309052,316.508484 
	C304.211487,328.430084 304.101410,340.351654 304.057159,352.273468 
	C304.055176,352.812469 304.648956,353.353668 305.869080,353.936188 
	C308.287933,353.926544 310.706818,353.916901 313.989166,353.998383 
	C314.318604,353.523834 314.933563,353.050537 314.935669,352.574554 
	C314.986115,340.928650 314.982513,329.282410 314.931824,317.636475 
	C314.929565,317.117645 314.393097,316.601074 313.194824,316.006775 
M109.808151,353.961090 
	C110.966881,353.960541 112.125618,353.962006 113.284340,353.959076 
	C119.966911,353.942169 119.980865,353.941803 119.982582,347.408020 
	C119.983795,342.773651 119.896378,338.138947 119.931053,333.505005 
	C119.961990,329.371490 121.525642,326.037842 125.526123,324.384827 
	C129.415482,322.777710 131.201843,325.727448 133.072784,329.117828 
	C133.042908,334.260651 132.895081,339.406464 133.026917,344.545135 
	C133.107452,347.684448 133.617950,350.812714 134.855240,353.949493 
	C137.623001,353.932800 140.390762,353.916138 144.020142,353.971100 
	C144.338470,347.429718 144.758423,340.890747 144.916473,334.345520 
	C144.967468,332.233948 144.329727,330.105774 144.086243,327.184204 
	C144.296524,321.602448 141.128860,317.835785 136.425186,316.244537 
	C130.304672,314.174011 124.034309,314.505585 118.845222,320.052368 
	C117.088959,314.029602 112.529160,316.403656 108.114151,316.422272 
	C108.076050,328.104401 108.019966,339.786591 108.038353,351.468628 
	C108.039642,352.289276 108.591263,353.109100 109.808151,353.961090 
M183.985077,354.014679 
	C184.327515,353.064880 184.960007,352.117188 184.966766,351.164978 
	C185.023819,343.138947 184.966431,335.112091 184.910767,326.341736 
	C183.779617,324.232117 182.796585,322.025482 181.490097,320.030731 
	C177.243088,313.546478 163.729019,313.578918 156.744202,317.399048 
	C155.735840,317.950531 155.625717,321.081970 155.936752,322.874329 
	C156.338837,325.191498 157.858704,326.119049 160.633942,325.360809 
	C163.813416,324.492096 167.242706,324.199310 170.543579,324.301025 
	C171.663437,324.335541 172.722855,326.331116 173.809891,327.430542 
	C172.760117,328.246155 171.804993,329.554718 170.641510,329.778076 
	C167.948959,330.295013 165.157608,330.422333 162.402634,330.464081 
	C155.799164,330.564117 151.075348,336.055420 151.032242,343.848145 
	C150.992493,351.033844 154.778976,355.352478 161.819931,354.808533 
	C166.445053,354.451202 170.950546,352.545349 175.865097,351.238464 
	C176.326508,355.175507 180.084259,353.723114 183.985077,354.014679 
M294.499603,301.098419 
	C291.229797,301.098419 287.959991,301.098419 284.405487,301.098419 
	C284.405487,307.097076 284.405487,312.724854 284.405487,318.799011 
	C282.157013,317.862183 280.643799,317.234467 279.132782,316.601593 
	C271.687500,313.483215 264.456696,315.644867 261.828430,323.127991 
	C258.864777,331.566132 259.117828,339.868469 262.015900,348.146118 
	C262.554230,349.683807 263.885559,351.211548 265.258331,352.144043 
	C271.963043,356.698425 277.171631,356.216675 284.868866,350.462921 
	C286.564880,356.427795 291.236908,353.775818 295.808380,353.680756 
	C295.871857,337.054260 295.947357,320.427795 295.955078,303.801270 
	C295.955414,303.128693 295.315155,302.455780 294.499603,301.098419 
M47.754555,353.937012 
	C50.977913,353.396057 54.201267,352.855072 58.347591,352.159210 
	C62.893375,355.100220 68.782745,356.685883 74.948250,353.160126 
	C80.099655,350.214294 81.555725,344.881104 82.782303,339.536285 
	C85.132706,329.294403 79.909966,318.464752 70.419304,315.888000 
	C66.775833,314.898804 62.434696,316.479248 57.938950,316.936890 
	C57.938950,312.427032 57.938950,306.895172 57.938950,300.363739 
	C53.831558,300.987610 50.413704,301.506744 46.193367,302.378174 
	C46.137451,319.056335 46.074112,335.734467 46.061443,352.412659 
	C46.061062,352.913483 46.591042,353.414734 47.754555,353.937012 
M237.215363,270.777924 
	C250.314957,270.845062 263.414551,270.921753 276.514191,270.940887 
	C276.990875,270.941559 277.468445,270.376801 277.973999,269.139038 
	C277.972473,265.077606 277.970947,261.016205 277.625549,256.147980 
	C264.155914,256.140472 250.686295,256.132996 236.375824,256.154846 
	C218.760422,253.785751 205.426315,244.798920 196.018631,229.871002 
	C189.717438,219.872406 187.700256,208.950394 187.921310,197.131439 
	C188.277191,178.105576 197.062119,164.032578 211.631180,152.887527 
	C225.115768,142.572083 240.671356,139.884506 256.806274,142.904449 
	C271.359680,145.628357 282.655823,154.495483 291.863647,166.016159 
	C298.253082,174.010529 300.677460,183.553986 302.168427,193.514191 
	C302.109100,205.524963 302.031464,217.535721 302.031586,229.546494 
	C302.031586,230.350327 302.620880,231.154144 303.867828,231.996094 
	C307.942413,231.996094 312.016968,231.996094 316.401703,231.996094 
	C316.231262,229.806427 316.120270,228.380493 316.833679,226.646759 
	C316.890381,218.232803 316.985321,209.818741 316.958466,201.405045 
	C316.954865,200.276428 316.336548,199.149765 316.008911,197.100784 
	C315.942902,193.944199 316.370819,190.683121 315.728821,187.648376 
	C312.178375,170.864975 304.382629,156.640411 291.017548,145.384171 
	C273.487823,130.620453 253.363052,125.804588 231.326584,129.575638 
	C223.073044,130.988037 215.107422,134.833847 207.401611,138.412354 
	C202.835876,140.532639 198.498245,143.790680 195.029465,147.456345 
	C191.048462,151.663315 187.963806,156.772720 184.805679,161.692871 
	C178.286392,171.849442 174.541779,183.142578 174.035675,195.087662 
	C173.421829,209.575424 176.232117,223.406357 183.879105,236.219650 
	C195.958435,256.459717 213.678619,267.315857 237.215363,270.777924 
M325.413116,340.929047 
	C323.570007,343.358673 321.870361,345.718201 323.706848,349.055237 
	C324.101318,349.771973 323.434784,351.990387 322.799377,352.213440 
	C316.779449,354.326813 319.305084,359.888275 318.822021,363.636047 
	C318.609406,365.285522 323.255615,368.192169 326.159607,369.491150 
	C334.070709,373.029846 341.950195,370.578156 349.644470,368.201080 
	C353.178711,367.109161 357.110138,360.656952 356.960785,356.797333 
	C356.768585,351.829803 354.691498,348.047455 349.487091,347.045044 
	C346.050018,346.383057 342.493713,346.358704 339.000458,345.963501 
	C336.438019,345.673645 332.796936,347.430603 332.305176,343.515778 
	C337.829254,341.755615 343.407379,340.881165 348.007477,338.278259 
	C353.451691,335.197662 353.997772,329.399872 352.261230,323.420074 
	C353.763092,322.877228 355.256592,322.726044 356.139587,321.912323 
	C357.080231,321.045502 357.926697,319.536438 357.888458,318.337280 
	C357.862946,317.537781 356.236084,316.148346 355.293518,316.120605 
	C347.722839,315.897430 340.080017,315.294647 332.583923,316.048157 
	C322.062927,317.105682 317.833069,328.383942 324.243408,336.822144 
	C324.976257,337.786835 325.251709,339.098999 325.413116,340.929047 
M410.907440,334.439453 
	C416.010742,337.300018 421.114075,340.160614 426.516998,343.189178 
	C419.985565,349.790314 414.309692,345.539612 408.729065,344.067261 
	C407.052856,351.908630 407.790894,354.075623 413.716125,354.760925 
	C418.359253,355.297943 423.188141,354.605652 427.896118,354.101471 
	C432.761078,353.580566 436.145752,349.580597 436.952179,343.898010 
	C437.602234,339.317383 434.768738,335.385284 429.587036,332.825592 
	C426.912384,331.504303 424.194641,330.232056 421.675781,328.651672 
	C420.607483,327.981415 419.999817,326.576935 419.182770,325.506165 
	C420.263245,325.026123 421.360291,324.107300 422.421082,324.147461 
	C425.738556,324.272980 429.042297,324.760559 432.667572,325.141022 
	C437.182922,319.738556 436.898163,317.099640 430.913605,316.226624 
	C426.466187,315.577820 421.807922,315.455475 417.350006,315.988647 
	C408.012299,317.105499 404.707855,325.985535 410.907440,334.439453 
M383.016327,341.378479 
	C382.987427,353.262024 391.223480,359.020691 401.346924,353.839050 
	C402.843872,353.072815 403.345093,349.934265 403.764618,347.787354 
	C403.870667,347.244568 401.913849,345.674011 400.859772,345.628784 
	C392.995880,345.291443 392.971497,345.354309 392.964478,337.219177 
	C392.962036,334.386414 393.182770,331.533875 392.921509,328.725739 
	C392.572998,324.980042 393.978119,323.798126 397.723053,323.898773 
	C404.205078,324.072876 404.662781,323.257935 403.246246,315.903290 
	C400.606903,315.903290 397.220215,316.872009 395.216339,315.622742 
	C393.324829,314.443512 392.887848,310.931152 391.249481,307.148590 
	C389.302765,308.293182 386.973541,309.258118 385.173615,310.829346 
	C383.184692,312.565582 381.887482,315.089935 379.911652,316.846558 
	C377.595490,318.905762 377.059113,322.981323 379.648773,323.724640 
	C383.021301,324.692596 383.054932,326.818115 383.026947,329.414337 
	C382.987427,333.079895 383.016144,336.746124 383.016327,341.378479 
M452.515930,344.985016 
	C451.702850,344.459442 450.851746,343.440063 450.083679,343.499207 
	C447.600189,343.690460 444.160522,343.463318 442.947876,344.931976 
	C441.620453,346.539642 441.491730,350.290649 442.489349,352.281250 
	C443.221649,353.742371 446.635345,354.537506 448.812500,354.460205 
	C453.850494,354.281311 454.856720,351.788330 452.515930,344.985016 
M97.511032,311.265656 
	C100.541924,309.848785 102.204124,307.163910 100.021202,304.634827 
	C98.306137,302.647858 95.009369,301.545746 92.271767,301.205780 
	C91.417824,301.099762 89.399887,304.670746 89.132965,306.717377 
	C88.573425,311.007660 90.717682,312.199585 97.511032,311.265656 
M367.321045,300.877838 
	C363.745361,300.590942 361.580322,302.675140 361.112213,305.756653 
	C360.884949,307.252380 362.268280,309.494110 363.586182,310.623779 
	C366.786072,313.366699 370.178223,312.696381 372.196838,309.163666 
	C374.649689,304.870880 371.830688,302.529663 367.321045,300.877838 
M306.859833,301.131439 
	C303.109589,302.619598 303.565735,305.998627 304.276428,308.657654 
	C304.653931,310.070007 307.136200,311.554657 308.865295,311.848785 
	C313.553436,312.646332 315.305206,309.553741 316.001465,304.370880 
	C313.408508,303.302917 310.530090,302.117401 306.859833,301.131439 
z"/>
<path fill="#2C363B" opacity="1.000000" stroke="none" 
	d="
M277.969452,256.954773 
	C277.970947,261.016205 277.972473,265.077606 277.496033,269.571472 
	C263.611664,269.994476 250.205215,269.985016 236.798767,269.975586 
	C213.678619,267.315857 195.958435,256.459717 183.879105,236.219650 
	C176.232117,223.406357 173.421829,209.575424 174.035675,195.087662 
	C174.541779,183.142578 178.286392,171.849442 184.805679,161.692871 
	C187.963806,156.772720 191.048462,151.663315 195.029465,147.456345 
	C198.498245,143.790680 202.835876,140.532639 207.401611,138.412354 
	C215.107422,134.833847 223.073044,130.988037 231.326584,129.575638 
	C253.363052,125.804588 273.487823,130.620453 291.017548,145.384171 
	C304.382629,156.640411 312.178375,170.864975 315.728821,187.648376 
	C316.370819,190.683121 315.942902,193.944199 315.985474,198.028305 
	C315.977783,208.288727 315.993500,217.621643 316.009247,226.954544 
	C316.120270,228.380493 316.231262,229.806427 316.401703,231.996094 
	C312.016968,231.996094 307.942413,231.996094 303.476624,231.516342 
	C303.042572,218.420929 302.999695,205.805267 302.956787,193.189606 
	C300.677460,183.553986 298.253082,174.010529 291.863647,166.016159 
	C282.655823,154.495483 271.359680,145.628357 256.806274,142.904449 
	C240.671356,139.884506 225.115768,142.572083 211.631180,152.887527 
	C197.062119,164.032578 188.277191,178.105576 187.921310,197.131439 
	C187.700256,208.950394 189.717438,219.872406 196.018631,229.871002 
	C205.426315,244.798920 218.760422,253.785751 237.018951,256.487427 
	C251.097885,256.864960 264.533661,256.909851 277.969452,256.954773 
z"/>
<path fill="#1D8FF8" opacity="1.000000" stroke="none" 
	d="
M280.121033,170.989578 
	C280.448669,171.021133 280.700623,171.175873 280.957642,171.988007 
	C281.388580,173.006531 281.738831,173.490829 282.089050,173.975128 
	C282.089050,173.975128 282.018372,173.984802 282.124939,174.191315 
	C282.514496,174.585846 282.797485,174.773865 283.080475,174.961884 
	C283.080475,174.961884 283.001648,174.984726 283.030579,175.268066 
	C283.402618,176.026871 283.745728,176.502365 284.088806,176.977859 
	C284.088806,176.977859 284.015778,176.990280 284.011780,177.341125 
	C284.697968,178.777496 285.388153,179.862991 286.078339,180.948502 
	C286.078339,180.948502 286.016083,181.006149 286.038879,181.280487 
	C286.410248,182.028198 286.758789,182.501572 287.107361,182.974945 
	C287.107361,182.974945 287.032166,182.986481 287.020294,183.377716 
	C288.018982,186.819122 289.029541,189.869278 290.040100,192.919434 
	C290.040100,192.919434 290.046173,192.949326 289.873230,193.277313 
	C289.648773,194.096802 289.597229,194.588318 289.362488,195.437057 
	C289.112152,209.952866 288.924042,224.112564 289.058502,238.269226 
	C289.094421,242.050201 287.861176,243.121216 284.179291,243.074554 
	C269.850037,242.892883 255.517014,242.963791 241.185791,243.027542 
	C239.428207,243.035355 237.672974,243.566803 235.916641,243.855560 
	C219.498535,240.933868 208.092957,231.147263 202.313980,216.125839 
	C195.131439,197.456070 198.585739,180.014053 213.590439,166.086395 
	C232.382507,148.643219 258.646362,151.162201 275.973450,166.790573 
	C276.506073,167.555679 276.792908,167.765472 277.079773,167.975250 
	C277.079773,167.975250 277.011200,167.986069 277.118774,168.193634 
	C277.510071,168.590500 277.793854,168.779785 278.077606,168.969055 
	C278.077606,168.969055 278.011261,168.989304 278.121094,169.194519 
	C278.512024,169.588440 278.793121,169.777130 279.074219,169.965820 
	C279.074219,169.965820 279.008240,169.989502 279.123230,170.204758 
	C279.532501,170.609863 279.826782,170.799713 280.121033,170.989578 
M241.592255,232.516327 
	C249.326584,232.677155 257.060791,232.938766 264.795319,232.948730 
	C267.852356,232.952682 270.910095,232.396500 274.482208,231.874832 
	C274.754883,231.622711 275.027557,231.370605 275.472168,230.990616 
	C275.472168,230.990616 275.660736,231.092438 276.605408,230.954285 
	C276.818695,220.953033 277.119263,210.952393 277.187958,200.950150 
	C277.206696,198.222977 276.527863,195.490997 275.720184,192.179382 
	C273.104889,187.239227 271.324432,181.555573 267.714050,177.501602 
	C257.824738,166.397202 239.894791,163.740982 225.600998,174.213623 
	C213.993591,182.718033 209.965057,199.004913 216.182816,213.292999 
	C220.789459,223.878876 229.356537,229.818359 240.978912,231.545273 
	C240.978912,231.545273 241.009720,231.910477 241.592255,232.516327 
z"/>
<path fill="#2D363B" opacity="1.000000" stroke="none" 
	d="
M325.576172,340.589539 
	C325.251709,339.098999 324.976257,337.786835 324.243408,336.822144 
	C317.833069,328.383942 322.062927,317.105682 332.583923,316.048157 
	C340.080017,315.294647 347.722839,315.897430 355.293518,316.120605 
	C356.236084,316.148346 357.862946,317.537781 357.888458,318.337280 
	C357.926697,319.536438 357.080231,321.045502 356.139587,321.912323 
	C355.256592,322.726044 353.763092,322.877228 352.261230,323.420074 
	C353.997772,329.399872 353.451691,335.197662 348.007477,338.278259 
	C343.407379,340.881165 337.829254,341.755615 332.305176,343.515778 
	C332.796936,347.430603 336.438019,345.673645 339.000458,345.963501 
	C342.493713,346.358704 346.050018,346.383057 349.487091,347.045044 
	C354.691498,348.047455 356.768585,351.829803 356.960785,356.797333 
	C357.110138,360.656952 353.178711,367.109161 349.644470,368.201080 
	C341.950195,370.578156 334.070709,373.029846 326.159607,369.491150 
	C323.255615,368.192169 318.609406,365.285522 318.822021,363.636047 
	C319.305084,359.888275 316.779449,354.326813 322.799377,352.213440 
	C323.434784,351.990387 324.101318,349.771973 323.706848,349.055237 
	C321.870361,345.718201 323.570007,343.358673 325.576172,340.589539 
M333.233307,363.634155 
	C337.251038,362.677551 341.407196,362.085083 345.235474,360.630005 
	C347.594696,359.733276 347.648804,357.009430 345.066040,356.294342 
	C341.588623,355.331543 337.764893,354.816071 334.215393,355.217926 
	C332.078979,355.459808 330.181335,357.810394 328.176392,359.213379 
	C329.623810,360.564941 331.071228,361.916534 333.233307,363.634155 
M337.252350,334.537445 
	C342.147217,334.574463 343.240448,330.748413 342.634979,327.496429 
	C342.244843,325.401062 339.203064,323.035980 336.901703,322.391418 
	C335.799927,322.082855 332.584839,325.297119 332.234802,327.256683 
	C331.689789,330.307831 331.280579,334.560028 337.252350,334.537445 
z"/>
<path fill="#2C363B" opacity="1.000000" stroke="none" 
	d="
M46.995853,302.025879 
	C50.413704,301.506744 53.831558,300.987610 57.938950,300.363739 
	C57.938950,306.895172 57.938950,312.427032 57.938950,316.936890 
	C62.434696,316.479248 66.775833,314.898804 70.419304,315.888000 
	C79.909966,318.464752 85.132706,329.294403 82.782303,339.536285 
	C81.555725,344.881104 80.099655,350.214294 74.948250,353.160126 
	C68.782745,356.685883 62.893375,355.100220 58.347591,352.159210 
	C54.201267,352.855072 50.977913,353.396057 47.354088,353.464722 
	C46.967697,336.003601 46.981777,319.014740 46.995853,302.025879 
M60.326752,325.233124 
	C56.153591,331.057495 57.469803,337.331512 59.614094,343.234314 
	C60.118095,344.621765 64.813942,346.108521 66.155914,345.269531 
	C70.419342,342.604218 72.924393,338.422241 71.999222,332.890594 
	C70.899132,326.313110 66.700020,323.179260 60.326752,325.233124 
z"/>
<path fill="#2F383E" opacity="1.000000" stroke="none" 
	d="
M294.982666,354.003754 
	C291.236908,353.775818 286.564880,356.427795 284.868866,350.462921 
	C277.171631,356.216675 271.963043,356.698425 265.258331,352.144043 
	C263.885559,351.211548 262.554230,349.683807 262.015900,348.146118 
	C259.117828,339.868469 258.864777,331.566132 261.828430,323.127991 
	C264.456696,315.644867 271.687500,313.483215 279.132782,316.601593 
	C280.643799,317.234467 282.157013,317.862183 284.405487,318.799011 
	C284.405487,312.724854 284.405487,307.097076 284.405487,301.098419 
	C287.959991,301.098419 291.229797,301.098419 294.666779,301.919128 
	C294.883514,319.827789 294.933075,336.915771 294.982666,354.003754 
M270.961182,331.377350 
	C271.402313,335.333862 271.211639,339.505737 272.465973,343.185028 
	C273.670685,346.718658 278.023224,347.082245 281.063599,344.643677 
	C284.977692,341.504333 286.766968,334.794128 284.056946,330.025787 
	C282.633972,327.522003 279.661285,324.580444 277.154907,324.347382 
	C274.076233,324.061096 271.419861,327.025299 270.961182,331.377350 
z"/>
<path fill="#2C363B" opacity="1.000000" stroke="none" 
	d="
M183.118362,353.907013 
	C180.084259,353.723114 176.326508,355.175507 175.865097,351.238464 
	C170.950546,352.545349 166.445053,354.451202 161.819931,354.808533 
	C154.778976,355.352478 150.992493,351.033844 151.032242,343.848145 
	C151.075348,336.055420 155.799164,330.564117 162.402634,330.464081 
	C165.157608,330.422333 167.948959,330.295013 170.641510,329.778076 
	C171.804993,329.554718 172.760117,328.246155 173.809891,327.430542 
	C172.722855,326.331116 171.663437,324.335541 170.543579,324.301025 
	C167.242706,324.199310 163.813416,324.492096 160.633942,325.360809 
	C157.858704,326.119049 156.338837,325.191498 155.936752,322.874329 
	C155.625717,321.081970 155.735840,317.950531 156.744202,317.399048 
	C163.729019,313.578918 177.243088,313.546478 181.490097,320.030731 
	C182.796585,322.025482 183.779617,324.232117 184.549530,326.913239 
	C184.132843,331.266541 184.162933,335.052002 184.000809,338.829224 
	C183.784973,343.858521 183.419540,348.881378 183.118362,353.907013 
M169.643524,336.946014 
	C167.163284,338.254822 164.388519,339.233124 162.356049,341.044373 
	C161.603363,341.715149 162.024918,345.351654 162.916367,345.855011 
	C164.474609,346.734863 167.273346,347.004028 168.711380,346.135986 
	C170.830231,344.856964 172.756577,342.593384 173.750839,340.307983 
	C174.706268,338.111755 173.065796,336.661285 169.643524,336.946014 
z"/>
<path fill="#293338" opacity="1.000000" stroke="none" 
	d="
M133.135971,328.210663 
	C131.201843,325.727448 129.415482,322.777710 125.526123,324.384827 
	C121.525642,326.037842 119.961990,329.371490 119.931053,333.505005 
	C119.896378,338.138947 119.983795,342.773651 119.982582,347.408020 
	C119.980865,353.941803 119.966911,353.942169 113.284340,353.959076 
	C112.125618,353.962006 110.966881,353.960541 109.399399,353.483704 
	C108.961823,340.690857 108.932991,328.375397 108.904160,316.059967 
	C112.529160,316.403656 117.088959,314.029602 118.845222,320.052368 
	C124.034309,314.505585 130.304672,314.174011 136.425186,316.244537 
	C141.128860,317.835785 144.296524,321.602448 144.020248,328.053802 
	C143.957947,330.900024 144.026886,332.879089 143.953323,334.852814 
	C143.716690,341.202759 143.427475,347.550720 143.158539,353.899445 
	C140.390762,353.916138 137.623001,353.932800 134.429031,353.483887 
	C134.005966,351.053375 134.079361,349.085602 133.999313,347.124084 
	C133.742020,340.818390 133.428070,334.514954 133.135971,328.210663 
z"/>
<path fill="#2D363B" opacity="1.000000" stroke="none" 
	d="
M410.649353,334.162872 
	C404.707855,325.985535 408.012299,317.105499 417.350006,315.988647 
	C421.807922,315.455475 426.466187,315.577820 430.913605,316.226624 
	C436.898163,317.099640 437.182922,319.738556 432.667572,325.141022 
	C429.042297,324.760559 425.738556,324.272980 422.421082,324.147461 
	C421.360291,324.107300 420.263245,325.026123 419.182770,325.506165 
	C419.999817,326.576935 420.607483,327.981415 421.675781,328.651672 
	C424.194641,330.232056 426.912384,331.504303 429.587036,332.825592 
	C434.768738,335.385284 437.602234,339.317383 436.952179,343.898010 
	C436.145752,349.580597 432.761078,353.580566 427.896118,354.101471 
	C423.188141,354.605652 418.359253,355.297943 413.716125,354.760925 
	C407.790894,354.075623 407.052856,351.908630 408.729065,344.067261 
	C414.309692,345.539612 419.985565,349.790314 426.516998,343.189178 
	C421.114075,340.160614 416.010742,337.300018 410.649353,334.162872 
z"/>
<path fill="#2D363B" opacity="1.000000" stroke="none" 
	d="
M233.118317,354.990448 
	C228.722000,343.365753 224.325699,331.741058 219.929382,320.116364 
	C218.132935,324.956116 215.933823,326.997375 210.613602,325.987793 
	C209.255768,325.730133 205.801147,330.345764 205.304993,333.083893 
	C204.428711,337.919800 204.681229,343.076874 205.213303,348.018555 
	C205.747787,352.982880 203.247543,353.960083 199.286301,353.942780 
	C197.787079,353.936218 196.287827,353.938171 194.380890,353.472504 
	C193.945938,340.702362 193.918686,328.395996 193.891449,316.089600 
	C197.725922,316.413574 203.191345,313.630768 203.096130,321.853973 
	C206.579834,316.214233 211.694717,315.438690 216.849731,315.232727 
	C220.266052,315.096283 223.769150,315.435303 227.119217,316.120026 
	C228.589539,316.420563 229.775269,318.113281 230.716202,319.549805 
	C228.964798,319.073517 227.587402,318.221344 226.099548,317.300781 
	C223.000916,319.371185 222.177216,321.610657 224.042114,325.207123 
	C225.894501,328.779510 226.650467,332.906067 228.345871,336.577881 
	C230.406586,341.040894 233.109940,345.205536 235.209213,349.653168 
	C236.211533,351.776703 237.504150,354.675476 233.118317,354.990448 
z"/>
<path fill="#293338" opacity="1.000000" stroke="none" 
	d="
M383.015991,340.895264 
	C383.016144,336.746124 382.987427,333.079895 383.026947,329.414337 
	C383.054932,326.818115 383.021301,324.692596 379.648773,323.724640 
	C377.059113,322.981323 377.595490,318.905762 379.911652,316.846558 
	C381.887482,315.089935 383.184692,312.565582 385.173615,310.829346 
	C386.973541,309.258118 389.302765,308.293182 391.249481,307.148590 
	C392.887848,310.931152 393.324829,314.443512 395.216339,315.622742 
	C397.220215,316.872009 400.606903,315.903290 403.246246,315.903290 
	C404.662781,323.257935 404.205078,324.072876 397.723053,323.898773 
	C393.978119,323.798126 392.572998,324.980042 392.921509,328.725739 
	C393.182770,331.533875 392.962036,334.386414 392.964478,337.219177 
	C392.971497,345.354309 392.995880,345.291443 400.859772,345.628784 
	C401.913849,345.674011 403.870667,347.244568 403.764618,347.787354 
	C403.345093,349.934265 402.843872,353.072815 401.346924,353.839050 
	C391.223480,359.020691 382.987427,353.262024 383.015991,340.895264 
z"/>
<path fill="#293338" opacity="1.000000" stroke="none" 
	d="
M233.078064,355.217407 
	C237.504150,354.675476 236.211533,351.776703 235.209213,349.653168 
	C233.109940,345.205536 230.406586,341.040894 228.345871,336.577881 
	C226.650467,332.906067 225.894501,328.779510 224.042114,325.207123 
	C222.177216,321.610657 223.000916,319.371185 226.099548,317.300781 
	C227.587402,318.221344 228.964798,319.073517 230.692139,319.965210 
	C231.358139,320.771118 231.674210,321.537567 231.779510,322.855377 
	C233.599304,330.090942 235.594360,336.786743 237.761948,343.426147 
	C237.873932,343.769104 239.461075,343.630463 240.758347,343.753754 
	C240.390228,341.515411 240.088806,339.682556 239.787384,337.849701 
	C239.855057,337.438843 239.922760,337.027985 240.218384,336.183594 
	C240.708466,335.536133 240.885345,335.266357 240.976944,334.940643 
	C240.976944,334.940643 240.973175,335.004181 241.299515,334.931335 
	C244.350052,331.329865 247.455231,327.905273 244.884583,322.930115 
	C244.929459,322.499359 244.974335,322.068604 245.235962,321.192139 
	C245.712387,320.532928 245.887009,320.264160 245.976608,319.940125 
	C245.976608,319.940125 245.972290,320.003906 246.286011,319.938904 
	C247.711044,319.013245 248.822357,318.152557 249.934448,317.291290 
	C253.008942,321.341553 253.122116,323.324524 251.313873,327.751892 
	C250.789902,329.034760 251.129776,330.670441 251.073624,332.144379 
	C251.073624,332.144379 251.037292,332.553467 250.737457,332.922913 
	C247.645874,340.919434 244.854111,348.546509 242.062347,356.173553 
	C242.062347,356.173553 242.076782,356.561890 241.742157,356.837708 
	C240.980118,358.435211 240.552689,359.756927 240.125275,361.078613 
	C240.125275,361.078613 240.082123,361.065063 239.719193,361.096313 
	C235.940018,363.554871 232.712524,366.353790 229.016861,368.230927 
	C227.487000,369.007996 223.631409,368.451324 223.120224,367.394806 
	C221.425781,363.892853 225.194641,364.462189 226.962753,363.464569 
	C229.196381,362.204346 233.001755,362.218323 231.905838,357.940002 
	C231.905838,357.940002 231.983841,357.462921 232.224503,357.097076 
	C232.724014,356.508911 232.895691,356.232452 232.980164,355.901825 
	C232.980164,355.901825 233.037811,355.444397 233.078064,355.217407 
z"/>
<path fill="#263036" opacity="1.000000" stroke="none" 
	d="
M88.967606,316.024231 
	C92.026604,316.017242 95.085587,316.010254 98.570465,316.494904 
	C98.996346,328.872711 98.996346,340.758911 98.996346,352.886444 
	C95.333656,352.886444 92.373718,352.886444 89.344566,352.429688 
	C89.172775,339.990021 89.070190,328.007141 88.967606,316.024231 
z"/>
<path fill="#263036" opacity="1.000000" stroke="none" 
	d="
M304.999512,316.010681 
	C307.731293,316.009369 310.463043,316.008057 313.610962,316.506653 
	C314.025665,327.569305 314.064575,338.132416 313.982513,348.694611 
	C313.969025,350.434235 313.424683,352.169800 313.125671,353.907227 
	C310.706818,353.916901 308.287933,353.926544 305.430084,353.456665 
	C304.993896,340.654968 304.996704,328.332825 304.999512,316.010681 
z"/>
<path fill="#248EEF" opacity="1.000000" stroke="none" 
	d="
M315.807739,282.849060 
	C315.461670,278.742676 315.115601,274.636261 314.727203,270.027802 
	C319.575378,270.027802 323.645111,270.027802 328.225220,270.561096 
	C328.735626,274.869141 328.735626,278.643829 328.735626,282.849060 
	C324.061462,282.849060 319.934631,282.849060 315.807739,282.849060 
z"/>
<path fill="#248EEF" opacity="1.000000" stroke="none" 
	d="
M303.188232,245.097824 
	C306.921295,244.826965 310.656433,244.376434 314.385834,244.419556 
	C315.249725,244.429550 316.741577,246.068741 316.827545,247.055573 
	C317.098358,250.162704 316.837952,253.316132 315.956390,256.701355 
	C311.074585,256.975708 307.019531,257.000366 303.027588,256.566345 
	C303.123230,252.437759 303.155731,248.767792 303.188232,245.097824 
z"/>
<path fill="#1D8FF8" opacity="1.000000" stroke="none" 
	d="
M299.943695,270.788422 
	C297.934784,270.830200 295.925903,270.871948 293.392639,270.487152 
	C291.970215,266.337036 291.072113,262.613525 290.174042,258.889984 
	C290.059784,258.595520 290.018677,258.291138 290.443359,257.703674 
	C291.245605,257.449310 291.655243,257.468140 292.158234,257.567444 
	C292.251617,257.647919 292.602997,257.682037 292.602997,257.682037 
	C292.602997,257.682037 292.897247,257.479187 293.344666,257.397827 
	C296.502319,257.361816 299.212494,257.407166 301.939728,257.829468 
	C302.218414,260.126190 302.480042,262.045929 302.795593,264.303894 
	C302.811188,265.095490 302.772888,265.548889 302.617096,266.106598 
	C302.347473,266.531128 302.426544,266.794708 302.790527,267.307098 
	C302.789001,268.020050 302.733856,268.427490 302.364868,268.875824 
	C301.348602,269.540649 300.646149,270.164551 299.943695,270.788422 
z"/>
<path fill="#2F383E" opacity="1.000000" stroke="none" 
	d="
M452.724213,345.325745 
	C454.856720,351.788330 453.850494,354.281311 448.812500,354.460205 
	C446.635345,354.537506 443.221649,353.742371 442.489349,352.281250 
	C441.491730,350.290649 441.620453,346.539642 442.947876,344.931976 
	C444.160522,343.463318 447.600189,343.690460 450.083679,343.499207 
	C450.851746,343.440063 451.702850,344.459442 452.724213,345.325745 
z"/>
<path fill="#353E41" opacity="1.000000" stroke="none" 
	d="
M97.165810,311.464294 
	C90.717682,312.199585 88.573425,311.007660 89.132965,306.717377 
	C89.399887,304.670746 91.417824,301.099762 92.271767,301.205780 
	C95.009369,301.545746 98.306137,302.647858 100.021202,304.634827 
	C102.204124,307.163910 100.541924,309.848785 97.165810,311.464294 
z"/>
<path fill="#353E41" opacity="1.000000" stroke="none" 
	d="
M367.722015,300.907898 
	C371.830688,302.529663 374.649689,304.870880 372.196838,309.163666 
	C370.178223,312.696381 366.786072,313.366699 363.586182,310.623779 
	C362.268280,309.494110 360.884949,307.252380 361.112213,305.756653 
	C361.580322,302.675140 363.745361,300.590942 367.722015,300.907898 
z"/>
<path fill="#C4F7FF" opacity="1.000000" stroke="none" 
	d="
M289.545715,195.079819 
	C289.597229,194.588318 289.648773,194.096802 289.862518,193.271576 
	C290.352661,193.923325 290.962738,194.907761 290.966370,195.894409 
	C291.025726,212.033752 291.008453,228.173370 291.008453,244.778305 
	C273.383362,244.778305 255.834488,244.778305 238.540024,244.353683 
	C255.712723,243.929062 272.630981,243.929062 289.545715,243.929062 
	C289.545715,227.283005 289.545715,211.181412 289.545715,195.079819 
z"/>
<path fill="#353E41" opacity="1.000000" stroke="none" 
	d="
M307.255737,301.031677 
	C310.530090,302.117401 313.408508,303.302917 316.001465,304.370880 
	C315.305206,309.553741 313.553436,312.646332 308.865295,311.848785 
	C307.136200,311.554657 304.653931,310.070007 304.276428,308.657654 
	C303.565735,305.998627 303.109589,302.619598 307.255737,301.031677 
z"/>
<path fill="#378CDB" opacity="1.000000" stroke="none" 
	d="
M289.362488,195.437057 
	C289.545715,211.181412 289.545715,227.283005 289.545715,243.929062 
	C272.630981,243.929062 255.712723,243.929062 238.316040,243.967697 
	C237.406052,244.016296 236.974457,244.026260 236.229767,243.945908 
	C237.672974,243.566803 239.428207,243.035355 241.185791,243.027542 
	C255.517014,242.963791 269.850037,242.892883 284.179291,243.074554 
	C287.861176,243.121216 289.094421,242.050201 289.058502,238.269226 
	C288.924042,224.112564 289.112152,209.952866 289.362488,195.437057 
z"/>
<path fill="#2D363B" opacity="1.000000" stroke="none" 
	d="
M231.596649,358.100586 
	C233.001755,362.218323 229.196381,362.204346 226.962753,363.464569 
	C225.194641,364.462189 221.425781,363.892853 223.120224,367.394806 
	C223.631409,368.451324 227.487000,369.007996 229.016861,368.230927 
	C232.712524,366.353790 235.940018,363.554871 239.713501,361.118225 
	C238.398865,368.119476 231.300018,371.778839 221.339783,370.555847 
	C221.339783,368.057922 221.339783,365.508270 221.339783,363.408264 
	C224.796112,361.619873 228.041779,359.940521 231.596649,358.100586 
z"/>
<path fill="#2D363B" opacity="1.000000" stroke="none" 
	d="
M251.419418,332.102509 
	C251.129776,330.670441 250.789902,329.034760 251.313873,327.751892 
	C253.122116,323.324524 253.008942,321.341553 249.934448,317.291290 
	C248.822357,318.152557 247.711044,319.013245 246.263519,319.916199 
	C245.798523,317.318573 246.889526,315.894257 249.699188,315.975433 
	C252.293640,316.050415 254.891983,315.991394 258.306366,315.991394 
	C255.896774,321.910919 253.830994,326.985779 251.419418,332.102509 
z"/>
<path fill="#2D363B" opacity="1.000000" stroke="none" 
	d="
M242.440155,356.111572 
	C244.854111,348.546509 247.645874,340.919434 250.753998,333.127625 
	C249.208176,338.655823 247.400894,344.367676 245.454971,350.031860 
	C244.745804,352.096100 243.706619,354.046997 242.440155,356.111572 
z"/>
<path fill="#2D363B" opacity="1.000000" stroke="none" 
	d="
M239.514328,337.965210 
	C240.088806,339.682556 240.390228,341.515411 240.758347,343.753754 
	C239.461075,343.630463 237.873932,343.769104 237.761948,343.426147 
	C235.594360,336.786743 233.599304,330.090942 231.850388,323.160034 
	C233.430115,326.706757 234.573654,330.564178 236.103165,334.261902 
	C236.705597,335.718323 238.169601,336.818390 239.514328,337.965210 
z"/>
<path fill="#E2E4E9" opacity="1.000000" stroke="none" 
	d="
M46.594612,302.202026 
	C46.981777,319.014740 46.967697,336.003601 46.913681,353.454102 
	C46.591042,353.414734 46.061062,352.913483 46.061443,352.412659 
	C46.074112,335.734467 46.137451,319.056335 46.594612,302.202026 
z"/>
<path fill="#FCFDFD" opacity="1.000000" stroke="none" 
	d="
M295.395508,353.842255 
	C294.933075,336.915771 294.883514,319.827789 294.903656,302.261414 
	C295.315155,302.455780 295.955414,303.128693 295.955078,303.801270 
	C295.947357,320.427795 295.871857,337.054260 295.395508,353.842255 
z"/>
<path fill="#E2E4E9" opacity="1.000000" stroke="none" 
	d="
M361.134216,315.955444 
	C364.876007,315.503998 368.617828,315.052582 372.871338,314.539429 
	C372.871338,327.948578 372.871338,340.801453 372.341125,353.526337 
	C371.765320,353.208282 371.719727,353.018219 371.740295,352.374969 
	C371.806427,340.027679 371.806427,328.133545 371.806427,316.109436 
	C368.095276,316.109436 365.113739,316.109436 361.884460,316.059448 
	C361.469269,315.991425 361.301758,315.973419 361.134216,315.955444 
z"/>
<path fill="#787E81" opacity="1.000000" stroke="none" 
	d="
M89.413780,352.886444 
	C92.373718,352.886444 95.333656,352.886444 98.996346,352.886444 
	C98.996346,340.758911 98.996346,328.872711 99.028687,316.523193 
	C99.351280,316.404144 99.894043,316.747528 99.895279,317.092834 
	C99.938957,329.260712 99.931786,341.428741 99.931786,354.036041 
	C96.375931,354.036041 93.119049,354.036041 89.517654,353.718201 
	C89.253349,353.229065 89.333565,353.057739 89.413780,352.886444 
z"/>
<path fill="#E2E4E9" opacity="1.000000" stroke="none" 
	d="
M237.007065,270.376740 
	C250.205215,269.985016 263.611664,269.994476 277.481842,270.039734 
	C277.468445,270.376801 276.990875,270.941559 276.514191,270.940887 
	C263.414551,270.921753 250.314957,270.845062 237.007065,270.376740 
z"/>
<path fill="#FCFDFD" opacity="1.000000" stroke="none" 
	d="
M277.797485,256.551392 
	C264.533661,256.909851 251.097885,256.864960 237.439377,256.472778 
	C250.686295,256.132996 264.155914,256.140472 277.797485,256.551392 
z"/>
<path fill="#A3A9AD" opacity="1.000000" stroke="none" 
	d="
M313.557434,353.952820 
	C313.424683,352.169800 313.969025,350.434235 313.982513,348.694611 
	C314.064575,338.132416 314.025665,327.569305 314.066284,316.544983 
	C314.393097,316.601074 314.929565,317.117645 314.931824,317.636475 
	C314.982513,329.282410 314.986115,340.928650 314.935669,352.574554 
	C314.933563,353.050537 314.318604,353.523834 313.557434,353.952820 
z"/>
<path fill="#E2E4E9" opacity="1.000000" stroke="none" 
	d="
M302.562622,193.351898 
	C302.999695,205.805267 303.042572,218.420929 303.010742,231.497284 
	C302.620880,231.154144 302.031586,230.350327 302.031586,229.546494 
	C302.031464,217.535721 302.109100,205.524963 302.562622,193.351898 
z"/>
<path fill="#353E41" opacity="1.000000" stroke="none" 
	d="
M304.654297,316.259583 
	C304.996704,328.332825 304.993896,340.654968 304.978180,353.435486 
	C304.648956,353.353668 304.055176,352.812469 304.057159,352.273468 
	C304.101410,340.351654 304.211487,328.430084 304.654297,316.259583 
z"/>
<path fill="#A3A9AD" opacity="1.000000" stroke="none" 
	d="
M193.520416,316.300171 
	C193.918686,328.395996 193.945938,340.702362 193.947815,353.472504 
	C193.617279,353.281891 193.046646,352.627655 193.046280,351.973114 
	C193.039673,340.152344 193.101883,328.331512 193.520416,316.300171 
z"/>
<path fill="#FCFDFD" opacity="1.000000" stroke="none" 
	d="
M108.509155,316.241119 
	C108.932991,328.375397 108.961823,340.690857 108.938812,353.467773 
	C108.591263,353.109100 108.039642,352.289276 108.038353,351.468628 
	C108.019966,339.786591 108.076050,328.104401 108.509155,316.241119 
z"/>
<path fill="#A3A9AD" opacity="1.000000" stroke="none" 
	d="
M361.093689,316.425232 
	C361.301758,315.973419 361.469269,315.991425 361.821960,316.517273 
	C362.031128,328.984589 362.055115,340.944092 362.054016,353.150208 
	C362.028900,353.396851 361.962280,353.888184 361.962280,353.888184 
	C361.650787,352.596466 361.076569,351.306274 361.069122,350.012787 
	C361.005493,338.973877 361.044678,327.934357 361.093689,316.425232 
z"/>
<path fill="#FCFDFD" opacity="1.000000" stroke="none" 
	d="
M89.344566,352.429688 
	C89.333565,353.057739 89.253349,353.229065 89.053009,353.657410 
	C88.621284,353.274200 88.038391,352.634003 88.038284,351.993713 
	C88.036263,340.116882 88.103691,328.240021 88.562057,316.193726 
	C89.070190,328.007141 89.172775,339.990021 89.344566,352.429688 
z"/>
<path fill="#FCFDFD" opacity="1.000000" stroke="none" 
	d="
M316.421448,226.800659 
	C315.993500,217.621643 315.977783,208.288727 315.982483,198.489014 
	C316.336548,199.149765 316.954865,200.276428 316.958466,201.405045 
	C316.985321,209.818741 316.890381,218.232803 316.421448,226.800659 
z"/>
<path fill="#2D363B" opacity="1.000000" stroke="none" 
	d="
M244.605713,323.162720 
	C247.455231,327.905273 244.350052,331.329865 241.276855,334.908997 
	C242.060867,331.104767 243.193863,327.250031 244.605713,323.162720 
z"/>
<path fill="#A3A9AD" opacity="1.000000" stroke="none" 
	d="
M183.551727,353.960846 
	C183.419540,348.881378 183.784973,343.858521 184.000809,338.829224 
	C184.162933,335.052002 184.132843,331.266541 184.565887,327.285095 
	C184.966431,335.112091 185.023819,343.138947 184.966766,351.164978 
	C184.960007,352.117188 184.327515,353.064880 183.551727,353.960846 
z"/>
<path fill="#FCFDFD" opacity="1.000000" stroke="none" 
	d="
M143.589340,353.935272 
	C143.427475,347.550720 143.716690,341.202759 143.953323,334.852814 
	C144.026886,332.879089 143.957947,330.900024 143.980652,328.454285 
	C144.329727,330.105774 144.967468,332.233948 144.916473,334.345520 
	C144.758423,340.890747 144.338470,347.429718 143.589340,353.935272 
z"/>
<path fill="#C4F7FF" opacity="1.000000" stroke="none" 
	d="
M316.003479,283.264832 
	C319.934631,282.849060 324.061462,282.849060 328.735626,282.849060 
	C328.735626,278.643829 328.735626,274.869141 328.655945,270.651917 
	C329.055237,271.472412 329.864380,272.714081 329.947632,274.002686 
	C330.149414,277.126068 330.013184,280.271271 330.013184,283.680573 
	C325.306091,283.680573 320.752625,283.680573 316.003479,283.264832 
z"/>
<path fill="#A3A9AD" opacity="1.000000" stroke="none" 
	d="
M133.104370,328.664246 
	C133.428070,334.514954 133.742020,340.818390 133.999313,347.124084 
	C134.079361,349.085602 134.005966,351.053375 133.969086,353.482117 
	C133.617950,350.812714 133.107452,347.684448 133.026917,344.545135 
	C132.895081,339.406464 133.042908,334.260651 133.104370,328.664246 
z"/>
<path fill="#C4F7FF" opacity="1.000000" stroke="none" 
	d="
M292.064850,257.486969 
	C291.655243,257.468140 291.245605,257.449310 290.531555,257.489258 
	C290.938965,257.024750 291.628082,256.090485 292.366547,256.049774 
	C295.448334,255.879684 298.544983,255.978165 301.510956,255.978165 
	C301.983704,251.820526 302.407135,248.096619 303.009399,244.735260 
	C303.155731,248.767792 303.123230,252.437759 303.046417,256.548004 
	C303.002136,256.988281 303.036438,256.948853 302.755280,257.068756 
	C302.290283,257.276611 302.106476,257.364563 301.922699,257.452515 
	C299.212494,257.407166 296.502319,257.361816 293.136353,257.340485 
	C292.480560,257.364532 292.064850,257.486969 292.064850,257.486969 
z"/>
<path fill="#C4F7FF" opacity="1.000000" stroke="none" 
	d="
M302.678711,268.834900 
	C302.733856,268.427490 302.789001,268.020050 302.844910,267.057007 
	C302.808624,266.334991 302.771576,266.168640 302.734558,266.002319 
	C302.772888,265.548889 302.811188,265.095490 302.878082,263.872864 
	C302.949921,261.052032 302.993164,259.000458 303.036438,256.948853 
	C303.036438,256.948853 303.002136,256.988281 302.983337,257.006653 
	C307.019531,257.000366 311.074585,256.975708 315.598633,256.913574 
	C312.293304,257.416168 308.518951,257.956207 304.221375,258.571136 
	C304.070740,261.945190 303.896149,265.855225 303.272736,269.625000 
	C302.775513,269.268127 302.727112,269.051514 302.678711,268.834900 
z"/>
<path fill="#378CDB" opacity="1.000000" stroke="none" 
	d="
M290.092041,259.355896 
	C291.072113,262.613525 291.970215,266.337036 292.968079,270.415405 
	C292.048218,270.053802 290.253754,269.434784 290.149200,268.603302 
	C289.786133,265.715942 290.009613,262.754852 290.092041,259.355896 
z"/>
<path fill="#378CDB" opacity="1.000000" stroke="none" 
	d="
M290.042786,192.519028 
	C289.029541,189.869278 288.018982,186.819122 287.034729,183.342529 
	C288.055817,185.983597 289.050629,189.051117 290.042786,192.519028 
z"/>
<path fill="#787E81" opacity="1.000000" stroke="none" 
	d="
M362.418640,353.926453 
	C361.962280,353.888184 362.028900,353.396851 362.491669,353.202637 
	C365.860992,352.948334 368.767578,352.888245 371.674133,352.828125 
	C371.719727,353.018219 371.765320,353.208282 371.924713,353.668518 
	C368.984009,353.947418 365.929474,353.956085 362.418640,353.926453 
z"/>
<path fill="#2D363B" opacity="1.000000" stroke="none" 
	d="
M240.455109,361.109772 
	C240.552689,359.756927 240.980118,358.435211 241.777374,357.028809 
	C241.693115,358.343018 241.239029,359.741974 240.455109,361.109772 
z"/>
<path fill="#378CDB" opacity="1.000000" stroke="none" 
	d="
M286.053589,180.604141 
	C285.388153,179.862991 284.697968,178.777496 284.031738,177.309937 
	C284.713409,178.038513 285.371124,179.149139 286.053589,180.604141 
z"/>
<path fill="#378CDB" opacity="1.000000" stroke="none" 
	d="
M302.364868,268.875824 
	C302.727112,269.051514 302.775513,269.268127 302.867523,269.815369 
	C302.145844,270.413727 301.380585,270.681488 300.279480,270.868835 
	C300.646149,270.164551 301.348602,269.540649 302.364868,268.875824 
z"/>
<path fill="#378CDB" opacity="1.000000" stroke="none" 
	d="
M287.083649,182.652725 
	C286.758789,182.501572 286.410248,182.028198 286.059509,181.243607 
	C286.391541,181.398422 286.725739,181.864471 287.083649,182.652725 
z"/>
<path fill="#378CDB" opacity="1.000000" stroke="none" 
	d="
M284.061523,176.660400 
	C283.745728,176.502365 283.402618,176.026871 283.061279,175.240845 
	C283.386810,175.401169 283.710510,175.872055 284.061523,176.660400 
z"/>
<path fill="#378CDB" opacity="1.000000" stroke="none" 
	d="
M282.056427,173.652283 
	C281.738831,173.490829 281.388580,173.006531 281.025208,172.206085 
	C281.349274,172.369797 281.686523,172.849625 282.056427,173.652283 
z"/>
<path fill="#378CDB" opacity="1.000000" stroke="none" 
	d="
M277.003754,167.707901 
	C276.792908,167.765472 276.506073,167.555679 276.118988,167.093231 
	C276.321747,167.040558 276.624756,167.240555 277.003754,167.707901 
z"/>
<path fill="#2D363B" opacity="1.000000" stroke="none" 
	d="
M232.746033,356.006409 
	C232.895691,356.232452 232.724014,356.508911 232.253662,356.857117 
	C232.198746,356.692352 232.355316,356.401672 232.746033,356.006409 
z"/>
<path fill="#378CDB" opacity="1.000000" stroke="none" 
	d="
M279.007721,169.702484 
	C278.793121,169.777130 278.512024,169.588440 278.130310,169.161087 
	C278.333527,169.094666 278.637390,169.266907 279.007721,169.702484 
z"/>
<path fill="#2D363B" opacity="1.000000" stroke="none" 
	d="
M240.733276,335.026855 
	C240.885345,335.266357 240.708466,335.536133 240.233856,335.871094 
	C240.177460,335.699097 240.333542,335.406097 240.733276,335.026855 
z"/>
<path fill="#2D363B" opacity="1.000000" stroke="none" 
	d="
M245.731750,320.023010 
	C245.887009,320.264160 245.712387,320.532928 245.242065,320.867188 
	C245.183212,320.693909 245.335052,320.399933 245.731750,320.023010 
z"/>
<path fill="#378CDB" opacity="1.000000" stroke="none" 
	d="
M278.008118,168.705872 
	C277.793854,168.779785 277.510071,168.590500 277.126587,168.159821 
	C277.330780,168.093185 277.634705,168.267929 278.008118,168.705872 
z"/>
<path fill="#378CDB" opacity="1.000000" stroke="none" 
	d="
M283.026154,174.689789 
	C282.797485,174.773865 282.514496,174.585846 282.133240,174.156631 
	C282.347260,174.082840 282.659546,174.250259 283.026154,174.689789 
z"/>
<path fill="#378CDB" opacity="1.000000" stroke="none" 
	d="
M280.044373,170.721237 
	C279.826782,170.799713 279.532501,170.609863 279.135803,170.172043 
	C279.344788,170.100342 279.656250,170.276627 280.044373,170.721237 
z"/>
<path fill="#000000" opacity="1.000000" stroke="none" 
	d="
M240.932343,231.181763 
	C229.356537,229.818359 220.789459,223.878876 216.182816,213.292999 
	C209.965057,199.004913 213.993591,182.718033 225.600998,174.213623 
	C239.894791,163.740982 257.824738,166.397202 267.714050,177.501602 
	C271.324432,181.555573 273.104889,187.239227 275.886261,192.963272 
	C275.921814,206.195587 275.791290,218.644012 275.660736,231.092438 
	C275.660736,231.092438 275.472168,230.990616 274.885437,231.003235 
	C263.176605,231.071152 252.054474,231.126465 240.932343,231.181763 
M241.881546,218.843277 
	C248.188599,218.886078 254.496536,218.879837 260.802307,218.993423 
	C263.730286,219.046158 265.048004,217.833054 265.002808,214.849838 
	C264.919800,209.371704 265.439850,203.848129 264.911224,198.421173 
	C264.025543,189.329285 257.414154,182.405869 247.905914,180.042862 
	C239.580154,177.973724 231.101913,182.411133 227.683960,190.651016 
	C222.656265,202.771637 227.345062,216.337540 241.881546,218.843277 
z"/>
<path fill="#C4F7FF" opacity="1.000000" stroke="none" 
	d="
M276.133057,231.023361 
	C275.791290,218.644012 275.921814,206.195587 276.110748,193.254196 
	C276.527863,195.490997 277.206696,198.222977 277.187958,200.950150 
	C277.119263,210.952393 276.818695,220.953033 276.133057,231.023361 
z"/>
<path fill="#70B8FD" opacity="1.000000" stroke="none" 
	d="
M240.955627,231.363525 
	C252.054474,231.126465 263.176605,231.071152 274.799500,231.067169 
	C275.027557,231.370605 274.754883,231.622711 273.761414,231.945343 
	C262.363647,231.980713 251.686676,231.945587 241.009720,231.910477 
	C241.009720,231.910477 240.978912,231.545273 240.955627,231.363525 
z"/>
<path fill="#248EEF" opacity="1.000000" stroke="none" 
	d="
M241.300995,232.213409 
	C251.686676,231.945587 262.363647,231.980713 273.504059,232.055603 
	C270.910095,232.396500 267.852356,232.952682 264.795319,232.948730 
	C257.060791,232.938766 249.326584,232.677155 241.300995,232.213409 
z"/>
<path fill="#000000" opacity="1.000000" stroke="none" 
	d="
M332.875977,363.451111 
	C331.071228,361.916534 329.623810,360.564941 328.176392,359.213379 
	C330.181335,357.810394 332.078979,355.459808 334.215393,355.217926 
	C337.764893,354.816071 341.588623,355.331543 345.066040,356.294342 
	C347.648804,357.009430 347.594696,359.733276 345.235474,360.630005 
	C341.407196,362.085083 337.251038,362.677551 332.875977,363.451111 
z"/>
<path fill="#000000" opacity="1.000000" stroke="none" 
	d="
M336.927429,334.651794 
	C331.280579,334.560028 331.689789,330.307831 332.234802,327.256683 
	C332.584839,325.297119 335.799927,322.082855 336.901703,322.391418 
	C339.203064,323.035980 342.244843,325.401062 342.634979,327.496429 
	C343.240448,330.748413 342.147217,334.574463 336.927429,334.651794 
z"/>
<path fill="#000000" opacity="1.000000" stroke="none" 
	d="
M60.599987,324.996582 
	C66.700020,323.179260 70.899132,326.313110 71.999222,332.890594 
	C72.924393,338.422241 70.419342,342.604218 66.155914,345.269531 
	C64.813942,346.108521 60.118095,344.621765 59.614094,343.234314 
	C57.469803,337.331512 56.153591,331.057495 60.599987,324.996582 
z"/>
<path fill="#000000" opacity="1.000000" stroke="none" 
	d="
M270.901367,331.047485 
	C271.419861,327.025299 274.076233,324.061096 277.154907,324.347382 
	C279.661285,324.580444 282.633972,327.522003 284.056946,330.025787 
	C286.766968,334.794128 284.977692,341.504333 281.063599,344.643677 
	C278.023224,347.082245 273.670685,346.718658 272.465973,343.185028 
	C271.211639,339.505737 271.402313,335.333862 270.901367,331.047485 
z"/>
<path fill="#000000" opacity="1.000000" stroke="none" 
	d="
M170.066406,336.954285 
	C173.065796,336.661285 174.706268,338.111755 173.750839,340.307983 
	C172.756577,342.593384 170.830231,344.856964 168.711380,346.135986 
	C167.273346,347.004028 164.474609,346.734863 162.916367,345.855011 
	C162.024918,345.351654 161.603363,341.715149 162.356049,341.044373 
	C164.388519,339.233124 167.163284,338.254822 170.066406,336.954285 
z"/>
<path fill="#378CDB" opacity="1.000000" stroke="none" 
	d="
M302.755280,257.068756 
	C302.993164,259.000458 302.949921,261.052032 302.824158,263.534668 
	C302.480042,262.045929 302.218414,260.126190 301.939728,257.829468 
	C302.106476,257.364563 302.290283,257.276611 302.755280,257.068756 
z"/>
<path fill="#378CDB" opacity="1.000000" stroke="none" 
	d="
M302.617096,266.106598 
	C302.771576,266.168640 302.808624,266.334991 302.791260,266.751465 
	C302.426544,266.794708 302.347473,266.531128 302.617096,266.106598 
z"/>
<path fill="#378CDB" opacity="1.000000" stroke="none" 
	d="
M292.158234,257.567444 
	C292.064850,257.486969 292.480560,257.364532 292.688904,257.421875 
	C292.897247,257.479187 292.602997,257.682037 292.602997,257.682037 
	C292.602997,257.682037 292.251617,257.647919 292.158234,257.567444 
z"/>
<path fill="#263036" opacity="1.000000" stroke="none" 
	d="
M371.740295,352.375000 
	C368.767578,352.888245 365.860992,352.948334 362.516785,352.956024 
	C362.055115,340.944092 362.031128,328.984589 362.069702,316.567261 
	C365.113739,316.109436 368.095276,316.109436 371.806427,316.109436 
	C371.806427,328.133545 371.806427,340.027679 371.740295,352.375000 
z"/>
<path fill="#2A343A" opacity="1.000000" stroke="none" 
	d="
M241.540329,218.730682 
	C227.345062,216.337540 222.656265,202.771637 227.683960,190.651016 
	C231.101913,182.411133 239.580154,177.973724 247.905914,180.042862 
	C257.414154,182.405869 264.025543,189.329285 264.911224,198.421173 
	C265.439850,203.848129 264.919800,209.371704 265.002808,214.849838 
	C265.048004,217.833054 263.730286,219.046158 260.802307,218.993423 
	C254.496536,218.879837 248.188599,218.886078 241.540329,218.730682 
M240.215897,203.212997 
	C244.194611,206.531509 250.992371,207.284531 251.392426,204.396790 
	C251.763489,201.718521 250.643311,198.198318 248.911713,196.090652 
	C247.784271,194.718384 244.029297,194.306000 242.091400,195.075439 
	C239.077286,196.272171 237.837448,199.178635 240.215897,203.212997 
z"/>
<path fill="#000000" opacity="1.000000" stroke="none" 
	d="
M240.064514,202.846451 
	C237.837448,199.178635 239.077286,196.272171 242.091400,195.075439 
	C244.029297,194.306000 247.784271,194.718384 248.911713,196.090652 
	C250.643311,198.198318 251.763489,201.718521 251.392426,204.396790 
	C250.992371,207.284531 244.194611,206.531509 240.064514,202.846451 
z"/>
</svg>