<svg xmlns="http://www.w3.org/2000/svg" width="501" height="498" viewBox="0 0 501 498" version="1.1"><path d="M 236.750 127.706 C 237.988 127.944, 240.012 127.944, 241.250 127.706 C 242.488 127.467, 241.475 127.272, 239 127.272 C 236.525 127.272, 235.512 127.467, 236.750 127.706 M 246.750 127.706 C 247.988 127.944, 250.012 127.944, 251.250 127.706 C 252.488 127.467, 251.475 127.272, 249 127.272 C 246.525 127.272, 245.512 127.467, 246.750 127.706 M 204.732 138.536 C 202.679 139.931, 201 141.287, 201 141.550 C 201 141.813, 202.800 140.837, 205 139.381 C 208.493 137.070, 209.674 136, 208.732 136 C 208.585 136, 206.785 137.141, 204.732 138.536 M 239.776 140.733 C 242.128 140.945, 245.728 140.942, 247.776 140.727 C 249.824 140.512, 247.900 140.339, 243.500 140.343 C 239.100 140.346, 237.424 140.522, 239.776 140.733 M 193.469 148.250 L 187.500 154.500 193.750 148.531 C 197.188 145.249, 200 142.436, 200 142.281 C 200 141.542, 199.013 142.444, 193.469 148.250 M 293.500 148 C 296.766 151.300, 299.662 154, 299.937 154 C 300.212 154, 297.766 151.300, 294.500 148 C 291.234 144.700, 288.338 142, 288.063 142 C 287.788 142, 290.234 144.700, 293.500 148 M 218.750 145.572 C 214.873 147.675, 215.312 148.401, 219.250 146.399 C 223.020 144.481, 223.687 143.985, 222.417 144.040 C 221.912 144.062, 220.262 144.751, 218.750 145.572 M 228.489 155.340 C 213.594 160.879, 203.640 172.025, 199.574 187.716 C 197.708 194.914, 197.594 200.002, 199.134 207.201 C 202.902 224.807, 217.982 239.636, 235.500 242.960 C 239.264 243.674, 250.444 243.987, 265.500 243.799 L 289.500 243.500 289.500 217 C 289.500 191.596, 289.401 190.227, 287.117 183.898 C 282.186 170.235, 271.569 159.402, 258.921 155.131 C 250.107 152.154, 236.809 152.245, 228.489 155.340 M 202.437 157.250 L 199.500 160.500 202.750 157.563 C 205.779 154.825, 206.460 154, 205.687 154 C 205.515 154, 204.052 155.463, 202.437 157.250 M 185.783 156.750 C 184.268 158.487, 181.199 163.982, 182.307 162.974 C 183.207 162.155, 187.979 155, 187.625 155 C 187.452 155, 186.623 155.787, 185.783 156.750 M 302.463 158.750 C 304.004 161.088, 305.456 163, 305.689 163 C 306.411 163, 302.582 156.914, 301.080 155.673 C 300.299 155.028, 300.921 156.412, 302.463 158.750 M 232.091 168.824 C 225.832 171.203, 218.595 178.089, 215.300 184.797 C 212.987 189.508, 212.500 191.808, 212.500 198.021 C 212.500 210.994, 219.067 221.379, 231 227.276 C 235.117 229.311, 237.225 229.529, 255.750 229.839 L 276 230.178 276 213.299 C 276 185.674, 271.963 176.576, 256.500 169.355 C 250.335 166.476, 238.920 166.227, 232.091 168.824 M 295.202 172.478 C 296.398 174.941, 297.549 176.785, 297.758 176.575 C 298.211 176.123, 294.170 168, 293.493 168 C 293.236 168, 294.005 170.015, 295.202 172.478 M 231.167 183.750 C 229.076 185.839, 228.760 186.340, 230.456 184.882 C 232.130 183.442, 234.400 181.768, 235.500 181.162 C 236.600 180.556, 236.920 180.047, 236.211 180.030 C 235.502 180.014, 233.233 181.688, 231.167 183.750 M 299.141 182 C 299.141 182.825, 299.527 184.400, 300 185.500 C 300.542 186.761, 300.859 186.945, 300.859 186 C 300.859 185.175, 300.473 183.600, 300 182.500 C 299.458 181.239, 299.141 181.055, 299.141 182 M 173.232 189 C 173.232 190.925, 173.438 191.713, 173.689 190.750 C 173.941 189.787, 173.941 188.213, 173.689 187.250 C 173.438 186.287, 173.232 187.075, 173.232 189 M 314.232 189 C 314.232 190.925, 314.438 191.713, 314.689 190.750 C 314.941 189.787, 314.941 188.213, 314.689 187.250 C 314.438 186.287, 314.232 187.075, 314.232 189 M 301.468 210.249 L 301.500 230.500 308.254 230.574 L 315.008 230.648 308.525 230.279 L 302.041 229.910 301.739 209.954 L 301.436 189.999 301.468 210.249 M 224.272 198 C 224.272 200.475, 224.467 201.488, 224.706 200.250 C 224.944 199.012, 224.944 196.988, 224.706 195.750 C 224.467 194.512, 224.272 195.525, 224.272 198 M 172.252 198.500 C 172.263 200.700, 172.468 201.482, 172.707 200.238 C 172.946 198.994, 172.937 197.194, 172.687 196.238 C 172.437 195.282, 172.241 196.300, 172.252 198.500 M 263 205.969 L 263 216.938 250.750 217.253 L 238.500 217.568 251.250 217.784 L 264 218 264 206.500 C 264 200.175, 263.775 195, 263.500 195 C 263.225 195, 263 199.936, 263 205.969 M 250.136 200.693 C 250.008 203.695, 249.748 203.908, 245.750 204.268 L 241.500 204.651 245.781 204.825 C 250.409 205.014, 251.495 203.913, 250.715 199.823 C 250.372 198.022, 250.242 198.218, 250.136 200.693 M 176.058 220.315 C 175.971 221.535, 180.214 231.120, 180.648 230.685 C 180.855 230.479, 179.919 227.878, 178.569 224.905 C 177.220 221.932, 176.089 219.867, 176.058 220.315 M 202.500 239 C 205.209 241.750, 207.650 244, 207.925 244 C 208.200 244, 206.209 241.750, 203.500 239 C 200.791 236.250, 198.350 234, 198.075 234 C 197.800 234, 199.791 236.250, 202.500 239 M 301 249.500 L 301 256 295 256 L 289 256 289 263.046 L 289 270.091 295.750 269.796 L 302.500 269.500 302.798 263.250 L 303.095 257 309.048 257 L 315 257 315 250 L 315 243 308 243 L 301 243 301 249.500 M 251.797 256.745 C 256.361 256.930, 263.561 256.929, 267.797 256.742 C 272.034 256.555, 268.300 256.404, 259.500 256.405 C 250.700 256.406, 247.234 256.559, 251.797 256.745 M 276.189 262.228 L 276 268.956 257.250 269.251 L 238.500 269.547 257.281 269.773 C 272.365 269.955, 276.166 269.732, 276.585 268.638 C 276.873 267.889, 276.944 264.626, 276.743 261.388 L 276.378 255.500 276.189 262.228 M 315 276 L 315 283 321.411 283 L 327.822 283 328.212 276.750 C 328.427 273.313, 328.440 270.163, 328.242 269.750 C 328.044 269.337, 324.984 269, 321.441 269 L 315 269 315 276 M 45.233 326.305 L 45 353.110 49.672 352.805 C 52.455 352.623, 54.446 351.985, 54.597 351.225 C 54.736 350.524, 54.621 350.411, 54.342 350.975 C 54.062 351.539, 52.078 352, 49.933 352 L 46.033 352 45.749 325.750 L 45.465 299.500 45.233 326.305 M 56.355 308.500 C 56.352 313.450, 56.521 315.601, 56.731 313.280 C 56.940 310.959, 56.943 306.909, 56.736 304.280 C 56.530 301.651, 56.358 303.550, 56.355 308.500 M 282.819 309.599 C 282.643 314.878, 282.837 319.404, 283.250 319.658 C 283.663 319.911, 284 315.591, 284 310.059 C 284 304.527, 283.806 300, 283.569 300 C 283.331 300, 282.994 304.319, 282.819 309.599 M 302.624 302.539 C 302.281 303.432, 302.039 304.914, 302.086 305.832 C 302.133 306.749, 302.568 306.173, 303.053 304.550 C 303.996 301.394, 303.662 299.832, 302.624 302.539 M 87.667 302.667 C 86.376 303.957, 87.022 307.022, 89 309 C 91.006 311.006, 95.440 311.715, 96.388 310.181 C 96.667 309.730, 95.641 309.546, 94.108 309.771 C 90.572 310.290, 87.657 307.577, 88.275 304.342 C 88.757 301.821, 88.692 301.642, 87.667 302.667 M 384.459 307.067 C 384.096 307.653, 384.070 308.403, 384.400 308.733 C 384.730 309.063, 385 308.759, 385 308.057 C 385 307.188, 386.115 306.911, 388.500 307.190 C 390.425 307.415, 392 307.239, 392 306.799 C 392 305.597, 385.218 305.838, 384.459 307.067 M 304.441 309.426 C 305.509 310.292, 307.309 310.961, 308.441 310.914 C 310.093 310.845, 309.972 310.669, 307.828 310.021 C 306.359 309.578, 304.559 308.908, 303.828 308.533 C 303.098 308.158, 303.374 308.560, 304.441 309.426 M 367 309.563 C 364.585 310.477, 364.138 310.905, 365.559 310.944 C 366.691 310.975, 368.491 310.339, 369.559 309.532 C 371.839 307.808, 371.633 307.810, 367 309.563 M 391.317 312.500 C 391.486 314.176, 392.369 314.549, 396.759 314.802 C 401.992 315.104, 402 315.110, 402 318.500 C 402 321.883, 401.980 321.897, 396.750 322.263 L 391.500 322.630 397.307 322.815 L 403.115 323 402.807 318.750 L 402.500 314.500 397.314 314.200 C 393.468 313.977, 391.996 313.460, 391.621 312.200 C 391.251 310.957, 391.169 311.037, 391.317 312.500 M 88.226 332.750 L 88.452 351.500 88.749 333.250 L 89.045 315 93.523 315 L 98 315 98 333.448 L 98 351.895 92.750 352.263 L 87.500 352.630 93.250 352.815 L 99 353 99 333.500 L 99 314 93.500 314 L 88 314 88.226 332.750 M 111.930 314.706 C 114.240 314.942, 116.065 315.716, 116.335 316.574 C 116.631 317.513, 116.740 317.404, 116.640 316.270 C 116.518 314.896, 115.531 314.478, 112.234 314.402 L 107.985 314.304 111.930 314.706 M 192.667 314.667 C 191.742 315.591, 191.823 353, 192.750 353.001 C 193.162 353.002, 193.368 344.403, 193.207 333.892 L 192.915 314.782 196.873 315.159 C 199.050 315.367, 200.618 315.191, 200.357 314.768 C 199.775 313.826, 193.589 313.744, 192.667 314.667 M 221 314.728 C 225.579 314.970, 227.869 315.560, 228.750 316.727 C 229.438 317.637, 230 317.936, 230 317.391 C 230 314.966, 227.319 314.008, 221.050 314.193 L 214.500 314.385 221 314.728 M 245.653 314.750 C 245.397 315.163, 247.452 315.340, 250.220 315.145 C 253.684 314.901, 255.520 315.212, 256.111 316.145 C 256.779 317.199, 256.973 317.112, 256.985 315.750 C 256.997 314.296, 256.080 314, 251.559 314 C 248.566 314, 245.909 314.337, 245.653 314.750 M 307.750 314.707 L 313 315.105 313 333.500 L 313 351.895 307.750 352.263 L 302.500 352.630 308.272 352.815 L 314.043 353 313.772 333.750 L 313.500 314.500 308 314.405 L 302.500 314.309 307.750 314.707 M 341.784 314.738 C 344.689 314.941, 349.189 314.939, 351.784 314.734 C 354.378 314.528, 352 314.363, 346.500 314.365 C 341 314.368, 338.878 314.536, 341.784 314.738 M 360.667 314.667 C 360.300 315.033, 360 323.808, 360 334.167 L 360 353 365.750 352.815 L 371.500 352.630 366.250 352.263 L 361 351.895 361 333.500 L 361 315.105 366.250 314.737 L 371.500 314.370 366.417 314.185 C 363.621 314.083, 361.033 314.300, 360.667 314.667 M 424.250 314.689 C 425.212 314.941, 426.788 314.941, 427.750 314.689 C 428.712 314.438, 427.925 314.232, 426 314.232 C 424.075 314.232, 423.288 314.438, 424.250 314.689 M 73.863 316.617 C 75.133 317.506, 77.031 319.643, 78.082 321.367 C 79.133 323.090, 79.994 323.953, 79.996 323.285 C 80.001 321.675, 74.102 315, 72.674 315 C 72.058 315, 72.594 315.728, 73.863 316.617 M 119.757 317.250 C 118.462 318.488, 118.099 319, 118.951 318.390 C 119.803 317.779, 121.400 316.781, 122.500 316.170 C 123.600 315.560, 123.963 315.047, 123.306 315.030 C 122.649 315.014, 121.052 316.012, 119.757 317.250 M 154.750 316.080 C 153.787 316.641, 153.007 317.640, 153.015 318.300 C 153.027 319.233, 153.200 319.233, 153.794 318.300 C 154.213 317.640, 155.669 316.656, 157.028 316.113 C 158.388 315.571, 158.825 315.112, 158 315.094 C 157.175 315.076, 155.713 315.519, 154.750 316.080 M 204.954 317.549 C 202.768 319.876, 202.499 319.941, 201.850 318.299 C 201.221 316.703, 201.133 316.691, 201.070 318.191 C 200.952 321.038, 202.369 320.953, 205.775 317.910 C 207.566 316.310, 208.653 315, 208.190 315 C 207.727 315, 206.271 316.147, 204.954 317.549 M 378.223 316.557 C 376.957 317.443, 376 319.165, 376 320.557 C 376 322.488, 376.517 323, 378.468 323 C 380.930 323, 380.937 323.029, 381.268 334.502 L 381.600 346.003 381.550 334.252 C 381.501 322.843, 381.434 322.491, 379.250 322.180 C 377.864 321.984, 377 321.167, 377 320.052 C 377 319.058, 378.012 317.538, 379.250 316.674 C 380.488 315.811, 381.263 315.081, 380.973 315.052 C 380.682 315.024, 379.445 315.701, 378.223 316.557 M 409.861 317.059 L 407.500 319.119 410.500 317.362 C 414.448 315.050, 414.507 315, 413.277 315 C 412.697 315, 411.159 315.927, 409.861 317.059 M 336.737 321.115 C 340.429 322.182, 341.862 325.637, 340.375 329.890 C 339.319 332.914, 334.913 333.954, 332.190 331.822 C 330.671 330.634, 330.639 330.678, 331.872 332.250 C 333.832 334.749, 338.544 334.489, 340.443 331.777 C 343.779 327.015, 340.915 319.883, 335.750 320.090 C 334.010 320.160, 334.234 320.392, 336.737 321.115 M 182.819 336.517 L 183.139 351.854 180.319 352.277 C 177.609 352.684, 177.626 352.706, 180.750 352.850 L 184 353 183.985 338.250 C 183.976 330.137, 183.639 322.978, 183.235 322.340 C 182.831 321.703, 182.644 328.082, 182.819 336.517 M 331.035 322.934 C 330.466 323.998, 330.052 326.136, 330.115 327.684 C 330.219 330.223, 330.298 330.152, 330.922 326.966 C 331.303 325.022, 331.953 322.885, 332.366 322.216 C 332.780 321.547, 332.882 321, 332.594 321 C 332.306 321, 331.605 321.870, 331.035 322.934 M 350.660 325.750 C 351.476 331.985, 352.413 332.872, 351.760 326.791 C 351.440 323.804, 351.665 321.913, 352.377 321.620 C 352.995 321.366, 352.721 321.122, 351.769 321.079 C 350.277 321.011, 350.124 321.656, 350.660 325.750 M 406.232 325 C 406.232 326.925, 406.438 327.712, 406.689 326.750 C 406.941 325.788, 406.941 324.212, 406.689 323.250 C 406.438 322.288, 406.232 323.075, 406.232 325 M 417.302 323.656 C 416.646 325.365, 420.149 329.038, 422.361 328.960 C 422.987 328.938, 422.262 328.249, 420.750 327.428 C 417.865 325.863, 417.127 323.519, 419.250 322.662 C 420.229 322.267, 420.222 322.141, 419.219 322.079 C 418.514 322.036, 417.651 322.745, 417.302 323.656 M 120.552 324.942 C 119.586 326.010, 119.030 327.473, 119.318 328.192 C 119.722 329.199, 119.860 329.173, 119.921 328.079 C 119.964 327.297, 120.745 325.835, 121.655 324.829 C 122.565 323.823, 123.085 323, 122.810 323 C 122.535 323, 121.519 323.874, 120.552 324.942 M 320.272 327 C 320.272 329.475, 320.467 330.488, 320.706 329.250 C 320.944 328.012, 320.944 325.988, 320.706 324.750 C 320.467 323.512, 320.272 324.525, 320.272 327 M 281.641 325 C 282.075 325.825, 282.727 328.300, 283.090 330.500 L 283.750 334.500 283.875 330.941 C 283.944 328.984, 283.292 326.509, 282.426 325.441 C 281.560 324.374, 281.207 324.175, 281.641 325 M 132.217 339.750 L 132 353 136.750 352.825 L 141.500 352.651 137.279 352.269 L 133.059 351.888 132.747 339.194 L 132.435 326.500 132.217 339.750 M 258.336 334 C 258.336 338.125, 258.513 339.813, 258.728 337.750 C 258.944 335.688, 258.944 332.313, 258.728 330.250 C 258.513 328.188, 258.336 329.875, 258.336 334 M 56.310 333.500 C 56.315 336.800, 56.502 338.029, 56.725 336.232 C 56.947 334.435, 56.943 331.735, 56.715 330.232 C 56.486 328.729, 56.304 330.200, 56.310 333.500 M 70.286 333.500 C 70.294 336.250, 70.488 337.256, 70.718 335.736 C 70.947 334.216, 70.941 331.966, 70.704 330.736 C 70.467 329.506, 70.279 330.750, 70.286 333.500 M 161.762 329.707 C 163.006 329.946, 164.806 329.937, 165.762 329.687 C 166.718 329.437, 165.700 329.241, 163.500 329.252 C 161.300 329.263, 160.518 329.468, 161.762 329.707 M 424.083 329.373 C 425.112 330.294, 431 332.999, 431 332.551 C 431 331.975, 425.456 329, 424.383 329 C 423.989 329, 423.854 329.168, 424.083 329.373 M 81.272 334 C 81.272 336.475, 81.467 337.488, 81.706 336.250 C 81.944 335.012, 81.944 332.988, 81.706 331.750 C 81.467 330.512, 81.272 331.525, 81.272 334 M 117.811 341.502 C 117.640 347.828, 117.838 353.003, 118.250 353.002 C 118.662 353.001, 119 347.825, 119 341.500 C 119 335.175, 118.802 330, 118.561 330 C 118.319 330, 117.981 335.176, 117.811 341.502 M 323.412 335.750 C 325.247 337.925, 325.250 338.066, 323.494 340.006 C 320.978 342.787, 322.006 343.116, 324.641 340.373 L 326.782 338.144 324.148 335.822 C 321.570 333.549, 321.555 333.548, 323.412 335.750 M 167.762 335.707 C 169.006 335.946, 170.806 335.937, 171.762 335.687 C 172.718 335.437, 171.700 335.241, 169.500 335.252 C 167.300 335.263, 166.518 335.468, 167.762 335.707 M 282.921 338.249 C 282.623 340.399, 282.776 341.624, 283.279 341.121 C 283.762 340.638, 283.995 338.951, 283.798 337.372 C 283.468 334.728, 283.399 334.798, 282.921 338.249 M 149.624 337.539 C 149.281 338.432, 149.056 340.589, 149.125 342.332 C 149.229 344.968, 149.376 344.744, 149.998 341 C 150.793 336.216, 150.647 334.871, 149.624 337.539 M 161.655 337.829 C 158.178 341.671, 160.265 346.092, 165.450 345.868 C 168.477 345.738, 168.474 345.732, 165 345.118 C 160.881 344.391, 159.752 341.037, 162.575 337.918 C 163.529 336.863, 164.085 336, 163.810 336 C 163.535 336, 162.565 336.823, 161.655 337.829 M 236 338.882 C 236 339.982, 236.450 341.160, 237 341.500 C 237.550 341.840, 238 341.218, 238 340.118 C 238 339.018, 237.550 337.840, 237 337.500 C 236.450 337.160, 236 337.782, 236 338.882 M 435.232 342 C 435.232 343.925, 435.438 344.712, 435.689 343.750 C 435.941 342.788, 435.941 341.212, 435.689 340.250 C 435.438 339.288, 435.232 340.075, 435.232 342 M 57 340.623 C 57 342.321, 60.755 345.257, 62.192 344.682 C 63.066 344.332, 62.938 344.132, 61.807 344.079 C 60.875 344.036, 59.413 343, 58.557 341.777 C 57.701 340.555, 57 340.035, 57 340.623 M 441.575 343.918 C 440.569 345.028, 440.026 346.816, 440.283 348.168 L 440.728 350.500 440.864 348.079 C 440.939 346.747, 441.745 344.835, 442.655 343.829 C 443.565 342.823, 444.085 342, 443.810 342 C 443.535 342, 442.529 342.863, 441.575 343.918 M 450.250 343.579 C 452.242 345.945, 452.463 348.266, 450.965 351.066 C 449.762 353.313, 444.225 353.736, 441.998 351.750 C 440.806 350.687, 440.794 350.761, 441.921 352.250 C 443.875 354.832, 449.499 354.553, 451.443 351.777 C 453.630 348.655, 453.380 345.632, 450.750 343.405 C 448.502 341.502, 448.502 341.502, 450.250 343.579 M 406.079 346.691 C 406.036 348.996, 406.356 351.102, 406.791 351.371 C 407.226 351.640, 407.418 350.204, 407.219 348.180 C 406.672 342.646, 406.168 341.987, 406.079 346.691 M 334.728 344.722 C 336.503 344.943, 339.653 344.946, 341.728 344.730 C 343.802 344.513, 342.350 344.333, 338.500 344.328 C 334.650 344.324, 332.952 344.501, 334.728 344.722 M 416.750 345.706 C 417.988 345.944, 420.012 345.944, 421.250 345.706 C 422.488 345.467, 421.475 345.272, 419 345.272 C 416.525 345.272, 415.512 345.467, 416.750 345.706 M 353.150 349.250 C 353.821 350.488, 354.685 353.075, 355.070 355 C 355.704 358.170, 355.781 358.236, 355.885 355.700 C 355.992 353.090, 353.580 347, 352.439 347 C 352.159 347, 352.479 348.012, 353.150 349.250 M 74.102 350.586 C 72.233 351.914, 71.196 353, 71.796 353 C 72.397 353, 74.151 351.889, 75.694 350.532 C 79.228 347.423, 78.520 347.447, 74.102 350.586 M 170.888 350.148 C 169.451 351.268, 165.851 352.571, 162.888 353.043 L 157.500 353.901 162.814 353.591 C 166.259 353.390, 169.128 352.542, 170.969 351.181 L 173.810 349.081 175.397 351.290 C 176.945 353.447, 176.956 353.433, 175.831 350.750 C 174.475 347.513, 174.295 347.491, 170.888 350.148 M 280.102 350.640 C 278.233 351.938, 277.160 353, 277.717 353 C 278.274 353, 279.883 352.093, 281.293 350.984 L 283.855 348.969 284.495 350.984 C 285.028 352.663, 285.919 352.972, 289.817 352.832 L 294.500 352.664 290.500 352.275 C 288.260 352.058, 285.840 351.093, 285 350.083 C 283.564 348.356, 283.355 348.380, 280.102 350.640 M 319.073 353.635 C 317.933 355.084, 317 357.525, 317 359.058 C 317 361.708, 321.231 368, 323.012 368 C 323.471 368, 322.531 366.685, 320.923 365.077 C 317.407 361.561, 317.099 357.415, 320.073 353.635 C 321.212 352.186, 321.920 351, 321.645 351 C 321.370 351, 320.212 352.186, 319.073 353.635 M 62.052 353.053 C 63.388 353.899, 70.855 354.453, 69.917 353.638 C 69.688 353.438, 67.498 353.019, 65.052 352.706 C 62.174 352.338, 61.115 352.461, 62.052 353.053 M 109.750 352.706 C 110.987 352.944, 113.013 352.944, 114.250 352.706 C 115.487 352.467, 114.475 352.272, 112 352.272 C 109.525 352.272, 108.513 352.467, 109.750 352.706 M 196.250 352.689 C 197.213 352.941, 198.787 352.941, 199.750 352.689 C 200.713 352.438, 199.925 352.232, 198 352.232 C 196.075 352.232, 195.287 352.438, 196.250 352.689 M 268.052 353.053 C 269.388 353.899, 276.855 354.453, 275.917 353.638 C 275.688 353.438, 273.498 353.019, 271.052 352.706 C 268.174 352.338, 267.115 352.461, 268.052 353.053 M 388.115 353.092 C 388.877 353.575, 391.525 353.941, 394 353.906 C 399.332 353.830, 398.388 353.349, 391.615 352.690 C 388.606 352.398, 387.262 352.552, 388.115 353.092 M 229.224 356.792 L 226.947 360.500 229.474 357.694 C 230.863 356.151, 232 354.464, 232 353.944 C 232 352.474, 231.663 352.820, 229.224 356.792 M 328.441 354.574 C 327.374 355.440, 327.175 355.777, 328 355.324 C 328.825 354.871, 332.650 354.235, 336.500 353.912 L 343.500 353.323 336.941 353.162 C 332.270 353.047, 329.824 353.453, 328.441 354.574 M 415.750 353.723 C 417.538 353.945, 420.462 353.945, 422.250 353.723 C 424.038 353.502, 422.575 353.320, 419 353.320 C 415.425 353.320, 413.962 353.502, 415.750 353.723 M 352.224 362.792 L 349.947 366.500 352.474 363.694 C 353.863 362.151, 355 360.464, 355 359.944 C 355 358.474, 354.663 358.820, 352.224 362.792 M 219.195 364.750 L 219.500 369.500 224 369.582 L 228.500 369.663 224.154 369.273 L 219.808 368.883 220.161 364.441 C 220.355 361.999, 220.149 360, 219.702 360 C 219.256 360, 219.028 362.137, 219.195 364.750 M 333.762 362.707 C 335.006 362.946, 336.806 362.937, 337.762 362.687 C 338.718 362.437, 337.700 362.241, 335.500 362.252 C 333.300 362.263, 332.518 362.468, 333.762 362.707 M 331.768 369.725 C 333.565 369.947, 336.265 369.943, 337.768 369.715 C 339.271 369.486, 337.800 369.304, 334.500 369.310 C 331.200 369.315, 329.971 369.502, 331.768 369.725" stroke="none" fill="#2090f5" fill-rule="evenodd"/><path d="M 235.799 128.158 C 226.800 129.021, 216.153 132.497, 208.165 137.179 C 199.990 141.971, 187.076 155.146, 182.529 163.333 C 175.949 175.183, 173.738 183.698, 173.657 197.500 C 173.584 210.106, 174.349 214.270, 178.713 225 C 185.851 242.553, 200.380 257.064, 217.612 263.849 C 227.615 267.788, 236.873 269, 256.958 269 L 276 269 275.995 262.750 L 275.990 256.500 256.245 256.414 C 241.411 256.350, 234.957 255.922, 230.295 254.696 C 211.153 249.662, 196.283 236.427, 189.318 218.225 C 186.161 209.973, 185.054 194.854, 186.970 186.156 C 188.702 178.294, 193.951 167.551, 199.335 160.849 C 205.029 153.760, 217.163 145.658, 226.500 142.710 C 235.613 139.833, 251.574 139.679, 260.496 142.382 C 277.706 147.597, 292.898 162.125, 299.076 179.277 C 301.078 184.833, 301.365 187.883, 301.755 207.750 L 302.193 230 308.596 230 L 315 230 314.965 211.750 C 314.915 185.454, 312.493 174.340, 303.873 160.854 C 288.872 137.385, 264.020 125.449, 235.799 128.158 M 236.500 180.896 C 231.844 183.051, 227.576 187.313, 226.064 191.315 C 223.565 197.928, 225.744 207.829, 230.644 212.129 C 235.280 216.199, 238.621 217, 250.950 217 L 263 217 262.978 205.750 C 262.961 196.958, 262.553 193.626, 261.110 190.500 C 256.585 180.696, 245.921 176.534, 236.500 180.896 M 239.746 193.250 C 234.355 197.368, 238.408 205, 245.986 205 C 248.696 205, 250.257 204.495, 250.641 203.492 C 251.497 201.262, 250.147 195.290, 248.389 193.532 C 246.538 191.681, 241.994 191.532, 239.746 193.250 M 46 326 L 46 352 49.933 352 C 52.998 352, 54.006 351.555, 54.505 349.984 C 55.141 347.981, 55.166 347.982, 58.200 350.143 C 62.836 353.443, 69.683 353.734, 73.982 350.812 C 82.124 345.277, 83.479 327.476, 76.397 319.060 C 71.875 313.686, 63.223 313.050, 58.527 317.746 L 56 320.273 56 310.136 L 56 300 51 300 L 46 300 46 326 M 91.297 300.700 C 87.237 301.487, 87.104 308.263, 91.123 309.539 C 97.049 311.420, 101.584 305.511, 97.040 301.831 C 95.796 300.824, 94.491 300.061, 94.139 300.136 C 93.788 300.211, 92.509 300.465, 91.297 300.700 M 283.968 310.195 C 283.943 318.502, 283.700 320.192, 282.718 318.913 C 280.692 316.274, 277.059 314.833, 272.431 314.833 C 263.613 314.833, 259 321.434, 259 334.052 C 259 345.868, 263.127 351.931, 271.717 352.735 C 275.654 353.104, 277.161 352.732, 280.236 350.631 C 283.878 348.143, 283.998 348.128, 285.021 350.040 C 285.794 351.483, 287.121 352, 290.052 352 L 294.034 352 293.767 326.250 L 293.500 300.500 288.750 300.195 L 284 299.890 283.968 310.195 M 305.751 300.701 C 303.843 301.187, 302.448 305.119, 303.349 307.468 C 304.005 309.177, 308.306 310.480, 310.506 309.636 C 311.337 309.317, 312.543 307.902, 313.186 306.491 C 314.123 304.434, 314.072 303.658, 312.927 302.570 C 311.178 300.909, 308.090 300.105, 305.751 300.701 M 363.352 300.993 C 360.471 302.156, 359.691 303.633, 360.421 306.542 C 361.155 309.466, 365.105 310.729, 368.574 309.148 C 372.088 307.547, 371.999 302.330, 368.435 300.975 C 367.024 300.439, 365.787 300.029, 365.685 300.063 C 365.583 300.098, 364.534 300.517, 363.352 300.993 M 384.007 310.480 C 383.354 312.456, 381.511 315.041, 379.910 316.224 C 376.408 318.814, 376.085 321.731, 379.250 322.180 C 381.418 322.488, 381.518 322.964, 382 335.226 C 382.448 346.619, 382.730 348.182, 384.691 350.139 C 387.274 352.718, 395.900 353.794, 400.313 352.088 C 402.707 351.164, 403.080 350.520, 402.813 347.779 C 402.505 344.607, 402.426 344.561, 397.852 344.847 C 395.084 345.021, 392.911 344.666, 392.481 343.969 C 391.901 343.031, 391.505 328.720, 391.908 323.250 C 391.968 322.429, 393.716 322, 397 322 L 402 322 402 318.552 L 402 315.105 396.750 314.802 L 391.500 314.500 391.500 311 C 391.500 307.805, 391.226 307.473, 388.346 307.194 C 385.512 306.919, 385.072 307.252, 384.007 310.480 M 126.135 314.990 C 124.284 315.433, 121.481 316.747, 119.907 317.911 L 117.045 320.027 116.414 317.513 C 115.875 315.368, 115.214 315, 111.892 315 L 108 315 108 333.500 L 108 352 112 352 C 114.200 352, 116.338 352.113, 116.750 352.250 C 117.162 352.387, 117.733 346.717, 118.017 339.649 C 118.521 327.109, 118.601 326.740, 121.323 324.399 C 124.870 321.348, 127.454 321.363, 130.545 324.455 C 132.889 326.798, 133 327.474, 133 339.354 L 133 351.799 137.571 352.162 C 140.084 352.362, 142.334 352.332, 142.571 352.096 C 142.807 351.860, 143 345.652, 143 338.301 C 143 323.766, 141.926 319.271, 137.834 316.676 C 134.665 314.667, 130.185 314.021, 126.135 314.990 M 158.750 315.600 C 153.622 317.177, 153.389 317.564, 155.191 321.520 C 156.118 323.554, 156.838 323.979, 158.441 323.438 C 159.573 323.056, 162.651 322.531, 165.279 322.273 C 170.660 321.744, 173 323.023, 173 326.493 C 173 328.552, 172.325 328.827, 164.987 329.764 C 160.580 330.327, 155.834 331.534, 154.442 332.446 C 147.835 336.775, 148.791 349.014, 155.969 351.987 C 160.101 353.699, 167.504 352.743, 171.183 350.023 C 172.819 348.814, 174.286 347.976, 174.443 348.162 C 174.600 348.348, 175.216 349.438, 175.811 350.585 C 176.654 352.207, 177.585 352.568, 180.015 352.211 L 183.137 351.753 182.819 336.454 C 182.520 322.121, 182.356 321.002, 180.214 318.725 C 175.911 314.150, 167.464 312.920, 158.750 315.600 M 210.482 315.163 C 208.957 315.571, 206.437 317.123, 204.884 318.611 C 201.902 321.468, 202.116 321.572, 200.531 316.500 C 200.230 315.536, 198.793 315, 196.509 315 L 192.956 315 193.228 333.655 L 193.500 352.309 198 352.310 L 202.500 352.311 202.781 340.761 C 203.047 329.830, 203.201 329.071, 205.667 326.606 C 207.573 324.700, 209.308 324, 212.125 324 C 215.863 324, 215.996 323.879, 216.634 319.885 C 217.097 316.990, 217.537 316.208, 218.118 317.246 C 220.241 321.040, 232 351.513, 232 353.221 C 232 356.316, 226.627 361, 223.077 361 C 220.154 361, 220 361.200, 220 365 L 220 369 224.550 369 C 229.590 369, 233.380 367.390, 236.694 363.840 C 238.425 361.987, 253.480 324.743, 255.753 316.693 C 256.206 315.089, 255.670 314.921, 250.968 315.193 L 245.672 315.500 242.786 324 C 241.198 328.675, 239.292 334.750, 238.551 337.500 C 237.810 340.250, 237.001 341.825, 236.755 341 C 232.918 328.165, 228.464 315.748, 227.599 315.476 C 225.111 314.695, 213.058 314.474, 210.482 315.163 M 330.297 315.135 C 324.271 316.517, 321 320.713, 321 327.061 C 321 331.030, 321.539 332.571, 323.817 335.122 L 326.635 338.275 324.317 340.592 C 321.545 343.364, 321.388 345.391, 323.760 347.750 C 325.440 349.420, 325.383 349.593, 322.524 351.531 C 316.761 355.436, 316.667 362.186, 322.318 366.394 C 326.345 369.392, 338.603 369.879, 345.475 367.313 C 353.662 364.257, 357.083 356.929, 353.530 350.059 C 351.668 346.457, 347.499 345, 339.051 345 C 335.393 345, 331.895 344.495, 331.278 343.878 C 329.290 341.890, 331.031 340, 334.857 339.994 C 340.863 339.985, 345.713 338.130, 348.553 334.754 C 350.923 331.938, 351.173 330.965, 350.701 326.392 C 350.177 321.315, 350.222 321.206, 353.083 320.633 C 355.381 320.174, 356 319.515, 356 317.525 C 356 315.018, 355.936 315, 347.250 314.986 C 342.438 314.979, 337.600 314.792, 336.500 314.572 C 335.400 314.351, 332.609 314.605, 330.297 315.135 M 416.500 314.929 C 409.550 316.606, 407 319.396, 407 325.323 C 407 330, 409.295 332.510, 417.529 336.837 C 429.906 343.342, 425.711 348.827, 411.605 344.582 L 406.893 343.164 407.196 347.292 C 407.552 352.129, 408.818 352.742, 418.782 352.900 C 429.368 353.068, 435.037 349.259, 434.965 342.027 C 434.907 336.333, 432.798 333.831, 424.840 330.017 C 419.339 327.381, 417.500 325.999, 417.500 324.500 C 417.500 322.902, 418.272 322.437, 421.342 322.184 C 423.455 322.010, 426.576 322.354, 428.279 322.947 C 431.765 324.163, 432.568 323.676, 433.534 319.765 C 434.096 317.490, 433.813 316.883, 431.855 316.157 C 428.191 314.799, 419.816 314.129, 416.500 314.929 M 88.793 333.501 L 88.500 352.002 93.250 352.001 L 98 352 98 333.500 L 98 315 93.543 315 L 89.085 315 88.793 333.501 M 303 333.500 L 303 352 308 352 L 313 352 313 333.500 L 313 315 308 315 L 303 315 303 333.500 M 361 333.500 L 361 352 366 352 L 371 352 371 333.500 L 371 315 366 315 L 361 315 361 333.500 M 332 322 C 327.923 326.077, 330.564 334, 336 334 C 341.436 334, 344.077 326.077, 340 322 C 338.900 320.900, 337.100 320, 336 320 C 334.900 320, 333.100 320.900, 332 322 M 59.025 323.975 C 57.939 325.061, 56.760 327.110, 56.403 328.529 C 55.360 332.685, 56.546 340.841, 58.509 343.010 C 60.804 345.546, 65.432 345.568, 67.944 343.056 C 72.131 338.869, 71.863 328.060, 67.478 324.250 C 64.287 321.477, 61.610 321.390, 59.025 323.975 M 273.736 322.695 C 269.003 323.922, 267.176 337.412, 271.073 342.365 C 273.750 345.769, 279.005 345.984, 281.961 342.811 C 284.892 339.666, 284.917 327.917, 282 325 C 280.900 323.900, 279.587 323, 279.082 323 C 278.577 323, 277.564 322.828, 276.832 322.619 C 276.099 322.409, 274.706 322.443, 273.736 322.695 M 165 335.709 C 158.317 338.167, 158.366 346, 165.065 346 C 169.296 346, 173 342.465, 173 338.427 C 173 335.211, 172.800 335.005, 169.750 335.079 C 167.963 335.122, 165.825 335.406, 165 335.709 M 442.655 343.829 C 440.719 345.968, 440.484 350.084, 442.200 351.800 C 444.154 353.754, 449.778 353.283, 450.965 351.066 C 452.508 348.182, 452.222 345.511, 450.171 343.655 C 447.772 341.484, 444.713 341.555, 442.655 343.829 M 328 355 C 325.508 357.492, 325.503 358.240, 327.959 360.463 C 332.447 364.524, 344.932 362.503, 345.856 357.566 C 346.424 354.526, 343.234 353, 336.309 353 C 331.333 353, 329.577 353.423, 328 355" stroke="none" fill="#2b363b" fill-rule="evenodd"/></svg>